{
    "accessors" : [
        {
            "bufferView" : 0,
            "componentType" : 5123,
            "count" : 960,
            "max" : [
                703
            ],
            "min" : [
                0
            ],
            "type" : "SCALAR"
        },
        {
            "bufferView" : 1,
            "componentType" : 5126,
            "count" : 704,
            "max" : [
                0.9352777004241943,
                4.564674377441406,
                0.93527752161026
            ],
            "min" : [
                -0.9352778196334839,
                3.7153701782226562,
                -0.9352784156799316
            ],
            "type" : "VEC3"
        },
        {
            "bufferView" : 2,
            "componentType" : 5126,
            "count" : 704,
            "max" : [
                0.9951848387718201,
                1.0,
                0.9951848983764648
            ],
            "min" : [
                -0.9951847791671753,
                -1.0,
                -0.9951847791671753
            ],
            "type" : "VEC3"
        },
        {
            "bufferView" : 3,
            "componentType" : 5126,
            "count" : 704,
            "max" : [
                0.9993383884429932,
                0.9280596971511841,
                0.9999951720237732,
                1.0
            ],
            "min" : [
                -0.6962572336196899,
                -0.8709497451782227,
                -0.9998707175254822,
                1.0
            ],
            "type" : "VEC4"
        },
        {
            "bufferView" : 4,
            "componentType" : 5126,
            "count" : 704,
            "max" : [
                0.9998999834060669,
                0.999900030597928
            ],
            "min" : [
                9.996940207201988e-05,
                0.49917691946029663
            ],
            "type" : "VEC2"
        },
        {
            "bufferView" : 5,
            "componentType" : 5123,
            "count" : 6912,
            "max" : [
                1297
            ],
            "min" : [
                0
            ],
            "type" : "SCALAR"
        },
        {
            "bufferView" : 6,
            "componentType" : 5126,
            "count" : 1298,
            "max" : [
                1.000000238418579,
                4.2183074951171875,
                1.0
            ],
            "min" : [
                -0.9999999403953552,
                0.0,
                -1.0
            ],
            "type" : "VEC3"
        },
        {
            "bufferView" : 7,
            "componentType" : 5126,
            "count" : 1298,
            "max" : [
                1.0,
                1.0,
                1.0
            ],
            "min" : [
                -1.0,
                -1.0,
                -1.0
            ],
            "type" : "VEC3"
        },
        {
            "bufferView" : 8,
            "componentType" : 5126,
            "count" : 1298,
            "max" : [
                0.9999980926513672,
                0.4337390661239624,
                0.9999964237213135,
                1.0
            ],
            "min" : [
                -1.0,
                -0.38987866044044495,
                -0.9999968409538269,
                1.0
            ],
            "type" : "VEC4"
        },
        {
            "bufferView" : 9,
            "componentType" : 5126,
            "count" : 1298,
            "max" : [
                0.9634988903999329,
                0.9476538598537445
            ],
            "min" : [
                0.023426292464137077,
                0.13474810123443604
            ],
            "type" : "VEC2"
        }
    ],
    "asset" : {
        "generator" : "Khronos Blender glTF 2.0 exporter",
        "version" : "2.0"
    },
    "bufferViews" : [
        {
            "buffer" : 0,
            "byteLength" : 1920,
            "byteOffset" : 0,
            "target" : 34963
        },
        {
            "buffer" : 0,
            "byteLength" : 8448,
            "byteOffset" : 1920,
            "target" : 34962
        },
        {
            "buffer" : 0,
            "byteLength" : 8448,
            "byteOffset" : 10368,
            "target" : 34962
        },
        {
            "buffer" : 0,
            "byteLength" : 11264,
            "byteOffset" : 18816,
            "target" : 34962
        },
        {
            "buffer" : 0,
            "byteLength" : 5632,
            "byteOffset" : 30080,
            "target" : 34962
        },
        {
            "buffer" : 0,
            "byteLength" : 13824,
            "byteOffset" : 35712,
            "target" : 34963
        },
        {
            "buffer" : 0,
            "byteLength" : 15576,
            "byteOffset" : 49536,
            "target" : 34962
        },
        {
            "buffer" : 0,
            "byteLength" : 15576,
            "byteOffset" : 65112,
            "target" : 34962
        },
        {
            "buffer" : 0,
            "byteLength" : 20768,
            "byteOffset" : 80688,
            "target" : 34962
        },
        {
            "buffer" : 0,
            "byteLength" : 10384,
            "byteOffset" : 101456,
            "target" : 34962
        }
    ],
    "buffers" : [
        {
            "byteLength" : 111840,
            "uri" : "data:application/octet-stream;base64,"
        }
    ],
    "materials" : [
        {
            "name" : "Material",
            "pbrMetallicRoughness" : {
                "baseColorFactor" : [
                    0.021079687401652336,
                    0.0038933344185352325,
                    0.0,
                    1.0
                ],
                "roughnessFactor" : 0.3909091055393219
            }
        },
        {
            "name" : "Material_002",
            "pbrMetallicRoughness" : {
                "baseColorFactor" : [
                    0.5390870571136475,
                    0.02338697761297226,
                    0.0,
                    1.0
                ]
            }
        }
    ],
    "meshes" : [
        {
            "name" : "Cylinder_000",
            "primitives" : [
                {
                    "attributes" : {
                        "NORMAL" : 2,
                        "POSITION" : 1,
                        "TANGENT" : 3,
                        "TEXCOORD_0" : 4
                    },
                    "indices" : 0,
                    "material" : 1
                }
            ]
        },
        {
            "name" : "Cylinder_003",
            "primitives" : [
                {
                    "attributes" : {
                        "NORMAL" : 7,
                        "POSITION" : 6,
                        "TANGENT" : 8,
                        "TEXCOORD_0" : 9
                    },
                    "indices" : 5,
                    "material" : 0
                }
            ]
        }
    ],
    "nodes" : [
        {
            "mesh" : 0,
            "name" : "bottle_000",
            "scale" : [
                0.029657546430826187,
                0.029657471925020218,
                0.029657546430826187
            ],
            "translation" : [
                1.6150948634052753e-10,
                0.00514906644821167,
                -0.0033294647000730038
            ]
        },
        {
            "mesh" : 1,
            "name" : "bottle_002",
            "scale" : [
                0.029657546430826187,
                0.029657471925020218,
                0.029657546430826187
            ],
            "translation" : [
                1.6150948634052753e-10,
                0.00514906644821167,
                -0.0033294647000730038
            ]
        }
    ],
    "scene" : 0,
    "scenes" : [
        {
            "name" : "Scene",
            "nodes" : [
                0,
                1
            ]
        }
    ]
}
