{
    "accessors" : [
        {
            "bufferView" : 0,
            "componentType" : 5121,
            "count" : 768,
            "max" : [
                203
            ],
            "min" : [
                0
            ],
            "type" : "SCALAR"
        },
        {
            "bufferView" : 1,
            "componentType" : 5126,
            "count" : 204,
            "max" : [
                -5.3965301513671875,
                4.467242240905762,
                1.5029661655426025
            ],
            "min" : [
                -5.4872002601623535,
                4.2919721603393555,
                1.4122958183288574
            ],
            "type" : "VEC3"
        },
        {
            "bufferView" : 2,
            "componentType" : 5126,
            "count" : 204,
            "max" : [
                0.7432783246040344,
                0.7759941220283508,
                0.7432478070259094
            ],
            "min" : [
                -0.7432783246040344,
                -0.7538071870803833,
                -0.7432478070259094
            ],
            "type" : "VEC3"
        },
        {
            "bufferView" : 3,
            "componentType" : 5126,
            "count" : 204,
            "max" : [
                1.0,
                0.0982980951666832,
                0.9960579872131348,
                1.0
            ],
            "min" : [
                -0.9960598349571228,
                -0.09833099693059921,
                -0.9960598945617676,
                -1.0
            ],
            "type" : "VEC4"
        },
        {
            "bufferView" : 4,
            "componentType" : 5126,
            "count" : 204,
            "max" : [
                1.0034058094024658,
                0.6753944754600525
            ],
            "min" : [
                0.003403186798095703,
                0.3199501633644104
            ],
            "type" : "VEC2"
        },
        {
            "bufferView" : 5,
            "componentType" : 5121,
            "count" : 1044,
            "max" : [
                198
            ],
            "min" : [
                0
            ],
            "type" : "SCALAR"
        },
        {
            "bufferView" : 6,
            "componentType" : 5126,
            "count" : 199,
            "max" : [
                -5.4057207107543945,
                4.468079090118408,
                1.4937752485275269
            ],
            "min" : [
                -5.478010177612305,
                3.8508219718933105,
                1.421486735343933
            ],
            "type" : "VEC3"
        },
        {
            "bufferView" : 7,
            "componentType" : 5126,
            "count" : 199,
            "max" : [
                0.9960325956344604,
                0.7535325288772583,
                0.9960325956344604
            ],
            "min" : [
                -0.9960325956344604,
                -0.6657002568244934,
                -0.9960325956344604
            ],
            "type" : "VEC3"
        },
        {
            "bufferView" : 8,
            "componentType" : 5126,
            "count" : 199,
            "max" : [
                1.3803960084915161,
                0.6251680850982666
            ],
            "min" : [
                0.0053975628688931465,
                0.3165395259857178
            ],
            "type" : "VEC2"
        },
        {
            "bufferView" : 9,
            "componentType" : 5123,
            "count" : 1368,
            "max" : [
                259
            ],
            "min" : [
                0
            ],
            "type" : "SCALAR"
        },
        {
            "bufferView" : 10,
            "componentType" : 5126,
            "count" : 260,
            "max" : [
                -4.2817583084106445,
                3.95845103263855,
                1.5727055072784424
            ],
            "min" : [
                -5.313262462615967,
                3.7830851078033447,
                0.5546518564224243
            ],
            "type" : "VEC3"
        },
        {
            "bufferView" : 11,
            "componentType" : 5126,
            "count" : 260,
            "max" : [
                0.9934080243110657,
                0.99951171875,
                0.999908447265625
            ],
            "min" : [
                -0.9924314022064209,
                -0.99951171875,
                -0.999298095703125
            ],
            "type" : "VEC3"
        },
        {
            "bufferView" : 12,
            "componentType" : 5126,
            "count" : 260,
            "max" : [
                0.9930970072746277,
                0.9999754428863525,
                0.9984320402145386,
                1.0
            ],
            "min" : [
                -0.9921534657478333,
                -0.9999260306358337,
                -0.9997342824935913,
                1.0
            ],
            "type" : "VEC4"
        },
        {
            "bufferView" : 13,
            "componentType" : 5126,
            "count" : 260,
            "max" : [
                0.5381715297698975,
                6.168782711029053
            ],
            "min" : [
                -0.45088085532188416,
                -5.168782711029053
            ],
            "type" : "VEC2"
        },
        {
            "bufferView" : 14,
            "componentType" : 5123,
            "count" : 2298,
            "max" : [
                562
            ],
            "min" : [
                0
            ],
            "type" : "SCALAR"
        },
        {
            "bufferView" : 15,
            "componentType" : 5126,
            "count" : 563,
            "max" : [
                -5.250792980194092,
                3.8824281692504883,
                1.6517271995544434
            ],
            "min" : [
                -5.635961055755615,
                3.686681032180786,
                1.2635349035263062
            ],
            "type" : "VEC3"
        },
        {
            "bufferView" : 16,
            "componentType" : 5126,
            "count" : 563,
            "max" : [
                0.9964598417282104,
                0.9940794110298157,
                0.9965819120407104
            ],
            "min" : [
                -0.9942014813423157,
                -0.99993896484375,
                -0.9959410429000854
            ],
            "type" : "VEC3"
        },
        {
            "bufferView" : 17,
            "componentType" : 5126,
            "count" : 563,
            "max" : [
                0.9755412936210632,
                0.999426007270813,
                0.9995298981666565,
                1.0
            ],
            "min" : [
                -0.9950084686279297,
                -0.9999247789382935,
                -0.9999830722808838,
                -1.0
            ],
            "type" : "VEC4"
        },
        {
            "bufferView" : 18,
            "componentType" : 5126,
            "count" : 563,
            "max" : [
                0.8295683860778809,
                0.9994930145330727
            ],
            "min" : [
                0.0013316491385921836,
                0.001942455768585205
            ],
            "type" : "VEC2"
        },
        {
            "bufferView" : 19,
            "componentType" : 5123,
            "count" : 840,
            "max" : [
                479
            ],
            "min" : [
                0
            ],
            "type" : "SCALAR"
        },
        {
            "bufferView" : 20,
            "componentType" : 5126,
            "count" : 480,
            "max" : [
                -5.175655364990234,
                3.8337490558624268,
                1.4884201288223267
            ],
            "min" : [
                -5.380833148956299,
                3.7867400646209717,
                1.4397577047348022
            ],
            "type" : "VEC3"
        },
        {
            "bufferView" : 21,
            "componentType" : 5126,
            "count" : 480,
            "max" : [
                0.9960595965385437,
                0.9209883809089661,
                0.9244592785835266
            ],
            "min" : [
                -0.9960588812828064,
                -0.9209955930709839,
                -0.9103675484657288
            ],
            "type" : "VEC3"
        },
        {
            "bufferView" : 22,
            "componentType" : 5126,
            "count" : 480,
            "max" : [
                1.0,
                1.0
            ],
            "min" : [
                0.0,
                0.0
            ],
            "type" : "VEC2"
        }
    ],
    "asset" : {
        "generator" : "Khronos Blender glTF 2.0 exporter",
        "version" : "2.0"
    },
    "bufferViews" : [
        {
            "buffer" : 0,
            "byteLength" : 768,
            "byteOffset" : 0,
            "target" : 34963
        },
        {
            "buffer" : 0,
            "byteLength" : 2448,
            "byteOffset" : 768,
            "target" : 34962
        },
        {
            "buffer" : 0,
            "byteLength" : 2448,
            "byteOffset" : 3216,
            "target" : 34962
        },
        {
            "buffer" : 0,
            "byteLength" : 3264,
            "byteOffset" : 5664,
            "target" : 34962
        },
        {
            "buffer" : 0,
            "byteLength" : 1632,
            "byteOffset" : 8928,
            "target" : 34962
        },
        {
            "buffer" : 0,
            "byteLength" : 1044,
            "byteOffset" : 10560,
            "target" : 34963
        },
        {
            "buffer" : 0,
            "byteLength" : 2388,
            "byteOffset" : 11604,
            "target" : 34962
        },
        {
            "buffer" : 0,
            "byteLength" : 2388,
            "byteOffset" : 13992,
            "target" : 34962
        },
        {
            "buffer" : 0,
            "byteLength" : 1592,
            "byteOffset" : 16380,
            "target" : 34962
        },
        {
            "buffer" : 0,
            "byteLength" : 2736,
            "byteOffset" : 17972,
            "target" : 34963
        },
        {
            "buffer" : 0,
            "byteLength" : 3120,
            "byteOffset" : 20708,
            "target" : 34962
        },
        {
            "buffer" : 0,
            "byteLength" : 3120,
            "byteOffset" : 23828,
            "target" : 34962
        },
        {
            "buffer" : 0,
            "byteLength" : 4160,
            "byteOffset" : 26948,
            "target" : 34962
        },
        {
            "buffer" : 0,
            "byteLength" : 2080,
            "byteOffset" : 31108,
            "target" : 34962
        },
        {
            "buffer" : 0,
            "byteLength" : 4596,
            "byteOffset" : 33188,
            "target" : 34963
        },
        {
            "buffer" : 0,
            "byteLength" : 6756,
            "byteOffset" : 37784,
            "target" : 34962
        },
        {
            "buffer" : 0,
            "byteLength" : 6756,
            "byteOffset" : 44540,
            "target" : 34962
        },
        {
            "buffer" : 0,
            "byteLength" : 9008,
            "byteOffset" : 51296,
            "target" : 34962
        },
        {
            "buffer" : 0,
            "byteLength" : 4504,
            "byteOffset" : 60304,
            "target" : 34962
        },
        {
            "buffer" : 0,
            "byteLength" : 1680,
            "byteOffset" : 64808,
            "target" : 34963
        },
        {
            "buffer" : 0,
            "byteLength" : 5760,
            "byteOffset" : 66488,
            "target" : 34962
        },
        {
            "buffer" : 0,
            "byteLength" : 5760,
            "byteOffset" : 72248,
            "target" : 34962
        },
        {
            "buffer" : 0,
            "byteLength" : 3840,
            "byteOffset" : 78008,
            "target" : 34962
        }
    ],
    "buffers" : [
        {
            "byteLength" : 81848,
            "uri" : "data:application/octet-stream;base64,"
        }
    ],
    "images" : [
        {
            "mimeType" : "image/jpeg",
            "name" : "braidedhose_reduced",
            "uri" : "data:image/jpeg;base64,"
        }
    ],
    "materials" : [
        {
            "name" : "bunsenhead",
            "pbrMetallicRoughness" : {
                "baseColorFactor" : [
                    1.0,
                    0.7365231513977051,
                    0.18462371826171875,
                    1.0
                ],
                "roughnessFactor" : 0.418181836605072
            }
        },
        {
            "name" : "bunsenhose",
            "pbrMetallicRoughness" : {
                "baseColorTexture" : {
                    "index" : 0
                },
                "roughnessFactor" : 0.5909091234207153
            }
        },
        {
            "name" : "bunsenport",
            "pbrMetallicRoughness" : {
                "roughnessFactor" : 0.4636363387107849
            }
        }
    ],
    "meshes" : [
        {
            "name" : "bunsentop_Cylinder.032",
            "primitives" : [
                {
                    "attributes" : {
                        "NORMAL" : 2,
                        "POSITION" : 1,
                        "TANGENT" : 3,
                        "TEXCOORD_0" : 4
                    },
                    "indices" : 0,
                    "material" : 0
                }
            ]
        },
        {
            "name" : "bunsenstem_Cylinder.031",
            "primitives" : [
                {
                    "attributes" : {
                        "NORMAL" : 7,
                        "POSITION" : 6,
                        "TEXCOORD_0" : 8
                    },
                    "indices" : 5,
                    "material" : 2
                }
            ]
        },
        {
            "name" : "BezierCurve_CUBezierCurve",
            "primitives" : [
                {
                    "attributes" : {
                        "NORMAL" : 11,
                        "POSITION" : 10,
                        "TANGENT" : 12,
                        "TEXCOORD_0" : 13
                    },
                    "indices" : 9,
                    "material" : 1
                }
            ]
        },
        {
            "name" : "bunsenbase_Cylinder.000",
            "primitives" : [
                {
                    "attributes" : {
                        "NORMAL" : 16,
                        "POSITION" : 15,
                        "TANGENT" : 17,
                        "TEXCOORD_0" : 18
                    },
                    "indices" : 14,
                    "material" : 2
                }
            ]
        },
        {
            "name" : "bunsengascock_Cylinder.023",
            "primitives" : [
                {
                    "attributes" : {
                        "NORMAL" : 21,
                        "POSITION" : 20,
                        "TEXCOORD_0" : 22
                    },
                    "indices" : 19,
                    "material" : 2
                }
            ]
        }
    ],
    "nodes" : [
        {
            "mesh" : 3,
            "name" : "bunsenbase",
            "rotation" : [
                0.0,
                -2.244918141514063e-05,
                -0.0,
                1.0
            ],
            "translation" : [
                -2.7248215675354004,
                0.14359541237354279,
                -8.42126178741455
            ]
        },
        {
            "mesh" : 4,
            "name" : "bunsengas",
            "rotation" : [
                0.0,
                -2.244918141514063e-05,
                -0.0,
                1.0
            ],
            "translation" : [
                -2.7248215675354004,
                0.14359541237354279,
                -8.42126178741455
            ]
        },
        {
            "mesh" : 0,
            "name" : "bunsenhead",
            "rotation" : [
                0.0,
                -2.244918141514063e-05,
                -0.0,
                1.0
            ],
            "translation" : [
                -2.7248215675354004,
                0.14359541237354279,
                -8.42126178741455
            ]
        },
        {
            "mesh" : 2,
            "name" : "bunsenhose",
            "rotation" : [
                0.0,
                -2.244918141514063e-05,
                -0.0,
                1.0
            ],
            "translation" : [
                -2.7248215675354004,
                0.14359541237354279,
                -8.42126178741455
            ]
        },
        {
            "mesh" : 1,
            "name" : "bunsenstem",
            "rotation" : [
                0.0,
                -2.244918141514063e-05,
                -0.0,
                1.0
            ],
            "translation" : [
                -2.7248215675354004,
                0.14359541237354279,
                -8.42126178741455
            ]
        }
    ],
    "samplers" : [
        {}
    ],
    "scene" : 0,
    "scenes" : [
        {
            "name" : "Scene",
            "nodes" : [
                0,
                1,
                2,
                3,
                4
            ]
        }
    ],
    "textures" : [
        {
            "sampler" : 0,
            "source" : 0
        }
    ]
}
