{
    "accessors" : [
        {
            "bufferView" : 0,
            "componentType" : 5121,
            "count" : 60,
            "max" : [
                39
            ],
            "min" : [
                0
            ],
            "type" : "SCALAR"
        },
        {
            "bufferView" : 1,
            "componentType" : 5126,
            "count" : 40,
            "max" : [
                0.7929935455322266,
                0.01822376251220703,
                1.1539316177368164
            ],
            "min" : [
                -0.7929935455322266,
                -0.018224239349365234,
                -1.1539313793182373
            ],
            "type" : "VEC3"
        },
        {
            "bufferView" : 2,
            "componentType" : 5126,
            "count" : 40,
            "max" : [
                1.0,
                1.0,
                1.0
            ],
            "min" : [
                -1.0,
                -1.0,
                -1.0
            ],
            "type" : "VEC3"
        },
        {
            "bufferView" : 3,
            "componentType" : 5126,
            "count" : 40,
            "max" : [
                5.243269697530195e-05,
                0.9999963045120239,
                -0.0,
                1.0
            ],
            "min" : [
                -1.0,
                -0.9999963641166687,
                -0.002709540305659175,
                1.0
            ],
            "type" : "VEC4"
        },
        {
            "bufferView" : 4,
            "componentType" : 5126,
            "count" : 40,
            "max" : [
                0.33873501420021057,
                0.9999419999985548
            ],
            "min" : [
                5.8000001445179805e-05,
                5.799531936645508e-05
            ],
            "type" : "VEC2"
        },
        {
            "bufferView" : 5,
            "componentType" : 5123,
            "count" : 2592,
            "max" : [
                475
            ],
            "min" : [
                0
            ],
            "type" : "SCALAR"
        },
        {
            "bufferView" : 6,
            "componentType" : 5126,
            "count" : 476,
            "max" : [
                1.4161138534545898,
                0.15984821319580078,
                -0.07061386108398438
            ],
            "min" : [
                1.3743019104003906,
                -0.0004067420959472656,
                -0.6959519386291504
            ],
            "type" : "VEC3"
        },
        {
            "bufferView" : 7,
            "componentType" : 5126,
            "count" : 476,
            "max" : [
                1.0,
                0.999176025390625,
                1.0
            ],
            "min" : [
                -1.0,
                -0.9991455078125,
                -1.0
            ],
            "type" : "VEC3"
        },
        {
            "bufferView" : 8,
            "componentType" : 5126,
            "count" : 476,
            "max" : [
                0.06746673583984375,
                0.9999793767929077,
                0.9992691874504089,
                1.0
            ],
            "min" : [
                -0.06986530125141144,
                -0.9999787211418152,
                -1.2331747711868957e-06,
                1.0
            ],
            "type" : "VEC4"
        },
        {
            "bufferView" : 9,
            "componentType" : 5126,
            "count" : 476,
            "max" : [
                0.9999589920043945,
                0.999959000000672
            ],
            "min" : [
                4.099999932805076e-05,
                0.8285910040140152
            ],
            "type" : "VEC2"
        },
        {
            "bufferView" : 10,
            "componentType" : 5126,
            "count" : 20,
            "max" : [
                0.7916666666666667
            ],
            "min" : [
                0.0
            ],
            "type" : "SCALAR"
        },
        {
            "bufferView" : 11,
            "componentType" : 5126,
            "count" : 20,
            "max" : [
                0.7071008682250977,
                -0.0029177835676819086,
                0.48134246468544006,
                0.7071006894111633
            ],
            "min" : [
                0.5179860591888428,
                -0.4813423454761505,
                0.0029177842661738396,
                0.517985999584198
            ],
            "type" : "VEC4"
        }
    ],
    "animations" : [
        {
            "channels" : [
                {
                    "sampler" : 0,
                    "target" : {
                        "node" : 1,
                        "path" : "rotation"
                    }
                },
                {
                    "sampler" : 0,
                    "target" : {
                        "node" : 1,
                        "path" : "rotation"
                    }
                }
            ],
            "samplers" : [
                {
                    "input" : 10,
                    "interpolation" : "LINEAR",
                    "output" : 11
                }
            ]
        }
    ],
    "asset" : {
        "generator" : "Khronos Blender glTF 2.0 exporter",
        "version" : "2.0"
    },
    "bufferViews" : [
        {
            "buffer" : 0,
            "byteLength" : 60,
            "byteOffset" : 0,
            "target" : 34963
        },
        {
            "buffer" : 0,
            "byteLength" : 480,
            "byteOffset" : 60,
            "target" : 34962
        },
        {
            "buffer" : 0,
            "byteLength" : 480,
            "byteOffset" : 540,
            "target" : 34962
        },
        {
            "buffer" : 0,
            "byteLength" : 640,
            "byteOffset" : 1020,
            "target" : 34962
        },
        {
            "buffer" : 0,
            "byteLength" : 320,
            "byteOffset" : 1660,
            "target" : 34962
        },
        {
            "buffer" : 0,
            "byteLength" : 5184,
            "byteOffset" : 1980,
            "target" : 34963
        },
        {
            "buffer" : 0,
            "byteLength" : 5712,
            "byteOffset" : 7164,
            "target" : 34962
        },
        {
            "buffer" : 0,
            "byteLength" : 5712,
            "byteOffset" : 12876,
            "target" : 34962
        },
        {
            "buffer" : 0,
            "byteLength" : 7616,
            "byteOffset" : 18588,
            "target" : 34962
        },
        {
            "buffer" : 0,
            "byteLength" : 3808,
            "byteOffset" : 26204,
            "target" : 34962
        },
        {
            "buffer" : 0,
            "byteLength" : 80,
            "byteOffset" : 30012
        },
        {
            "buffer" : 0,
            "byteLength" : 320,
            "byteOffset" : 30092
        }
    ],
    "buffers" : [
        {
            "byteLength" : 30412,
            "uri" : "data:application/octet-stream;base64,"
        }
    ],
    "images" : [
        {
            "mimeType" : "image/jpeg",
            "name" : "cabinet_leftdoor_reduced",
            "uri" : "data:image/jpeg;base64,"
        },
        {
            "mimeType" : "image/jpeg",
            "name" : "handle_vert_reduced",
            "uri" : "data:image/jpeg;base64,"
        }
    ],
    "materials" : [
        {
            "name" : "cabinet_leftdoor",
            "pbrMetallicRoughness" : {
                "baseColorTexture" : {
                    "index" : 0
                }
            }
        },
        {
            "name" : "handle_vert",
            "pbrMetallicRoughness" : {
                "baseColorTexture" : {
                    "index" : 1
                }
            }
        }
    ],
    "meshes" : [
        {
            "name" : "cabinet_b1",
            "primitives" : [
                {
                    "attributes" : {
                        "NORMAL" : 2,
                        "POSITION" : 1,
                        "TANGENT" : 3,
                        "TEXCOORD_0" : 4
                    },
                    "indices" : 0,
                    "material" : 0
                }
            ]
        },
        {
            "name" : "handle_cabinet_b1",
            "primitives" : [
                {
                    "attributes" : {
                        "NORMAL" : 7,
                        "POSITION" : 6,
                        "TANGENT" : 8,
                        "TEXCOORD_0" : 9
                    },
                    "indices" : 5,
                    "material" : 1
                }
            ]
        }
    ],
    "nodes" : [
        {
            "mesh" : 0,
            "name" : "cabinet_b1",
            "translation" : [
                0.7929935455322266,
                -0.018152713775634766,
                -4.76837158203125e-07
            ]
        },
        {
            "children" : [
                0
            ],
            "mesh" : 1,
            "name" : "handle_cabinet_b1",
            "rotation" : [
                0.7071068286895752,
                0.0,
                -0.0,
                0.7071067094802856
            ],
            "translation" : [
                -6.60483980178833,
                1.7383778095245361,
                -5.89163875579834
            ]
        },
        {
            "mesh" : 1,
            "name" : "handle_cabinet_b1",
            "rotation" : [
                0.7071068286895752,
                0.0,
                -0.0,
                0.7071067094802856
            ],
            "translation" : [
                -6.60483980178833,
                1.7383778095245361,
                -5.89163875579834
            ]
        }
    ],
    "samplers" : [
        {}
    ],
    "scene" : 0,
    "scenes" : [
        {
            "name" : "Scene",
            "nodes" : [
                1
            ]
        }
    ],
    "textures" : [
        {
            "sampler" : 0,
            "source" : 0
        },
        {
            "sampler" : 0,
            "source" : 1
        }
    ]
}
