{
    "accessors" : [
        {
            "bufferView" : 0,
            "componentType" : 5123,
            "count" : 2592,
            "max" : [
                475
            ],
            "min" : [
                0
            ],
            "type" : "SCALAR"
        },
        {
            "bufferView" : 1,
            "componentType" : 5126,
            "count" : 476,
            "max" : [
                -1.3490486145019531,
                0.15979576110839844,
                -0.06760454177856445
            ],
            "min" : [
                -1.3908605575561523,
                -0.0004591941833496094,
                -0.6929426193237305
            ],
            "type" : "VEC3"
        },
        {
            "bufferView" : 2,
            "componentType" : 5126,
            "count" : 476,
            "max" : [
                1.0,
                0.999176025390625,
                1.0
            ],
            "min" : [
                -1.0,
                -0.9991455078125,
                -1.0
            ],
            "type" : "VEC3"
        },
        {
            "bufferView" : 3,
            "componentType" : 5126,
            "count" : 476,
            "max" : [
                0.06745260208845139,
                0.9999792575836182,
                0.9992689490318298,
                1.0
            ],
            "min" : [
                -0.06986387819051743,
                -0.99997878074646,
                -1.1763593192881672e-06,
                1.0
            ],
            "type" : "VEC4"
        },
        {
            "bufferView" : 4,
            "componentType" : 5126,
            "count" : 476,
            "max" : [
                0.9999589920043945,
                0.999959000000672
            ],
            "min" : [
                4.099999932805076e-05,
                0.8285910040140152
            ],
            "type" : "VEC2"
        },
        {
            "bufferView" : 5,
            "componentType" : 5121,
            "count" : 60,
            "max" : [
                39
            ],
            "min" : [
                0
            ],
            "type" : "SCALAR"
        },
        {
            "bufferView" : 6,
            "componentType" : 5126,
            "count" : 40,
            "max" : [
                0.7929935455322266,
                0.01822376251220703,
                1.1539316177368164
            ],
            "min" : [
                -0.7929935455322266,
                -0.018224239349365234,
                -1.1539313793182373
            ],
            "type" : "VEC3"
        },
        {
            "bufferView" : 7,
            "componentType" : 5126,
            "count" : 40,
            "max" : [
                1.0,
                1.0,
                1.0
            ],
            "min" : [
                -1.0,
                -1.0,
                -1.0
            ],
            "type" : "VEC3"
        },
        {
            "bufferView" : 8,
            "componentType" : 5126,
            "count" : 40,
            "max" : [
                5.243269697530195e-05,
                0.9999963045120239,
                -0.0,
                1.0
            ],
            "min" : [
                -1.0,
                -0.9999963641166687,
                -0.002709540305659175,
                1.0
            ],
            "type" : "VEC4"
        },
        {
            "bufferView" : 9,
            "componentType" : 5126,
            "count" : 40,
            "max" : [
                0.33873501420021057,
                0.9999419999985548
            ],
            "min" : [
                5.8000001445179805e-05,
                5.799531936645508e-05
            ],
            "type" : "VEC2"
        },
        {
            "bufferView" : 10,
            "componentType" : 5126,
            "count" : 20,
            "max" : [
                0.7916666666666667
            ],
            "min" : [
                0.0
            ],
            "type" : "SCALAR"
        },
        {
            "bufferView" : 11,
            "componentType" : 5126,
            "count" : 20,
            "max" : [
                0.7071008086204529,
                0.48179423809051514,
                -0.0029211852233856916,
                0.7071006894111633
            ],
            "min" : [
                0.5175658464431763,
                0.002921184990555048,
                -0.4817942678928375,
                0.5175656676292419
            ],
            "type" : "VEC4"
        }
    ],
    "animations" : [
        {
            "channels" : [
                {
                    "sampler" : 0,
                    "target" : {
                        "node" : 1,
                        "path" : "rotation"
                    }
                },
                {
                    "sampler" : 0,
                    "target" : {
                        "node" : 1,
                        "path" : "rotation"
                    }
                }
            ],
            "samplers" : [
                {
                    "input" : 10,
                    "interpolation" : "LINEAR",
                    "output" : 11
                }
            ]
        }
    ],
    "asset" : {
        "generator" : "Khronos Blender glTF 2.0 exporter",
        "version" : "2.0"
    },
    "bufferViews" : [
        {
            "buffer" : 0,
            "byteLength" : 5184,
            "byteOffset" : 0,
            "target" : 34963
        },
        {
            "buffer" : 0,
            "byteLength" : 5712,
            "byteOffset" : 5184,
            "target" : 34962
        },
        {
            "buffer" : 0,
            "byteLength" : 5712,
            "byteOffset" : 10896,
            "target" : 34962
        },
        {
            "buffer" : 0,
            "byteLength" : 7616,
            "byteOffset" : 16608,
            "target" : 34962
        },
        {
            "buffer" : 0,
            "byteLength" : 3808,
            "byteOffset" : 24224,
            "target" : 34962
        },
        {
            "buffer" : 0,
            "byteLength" : 60,
            "byteOffset" : 28032,
            "target" : 34963
        },
        {
            "buffer" : 0,
            "byteLength" : 480,
            "byteOffset" : 28092,
            "target" : 34962
        },
        {
            "buffer" : 0,
            "byteLength" : 480,
            "byteOffset" : 28572,
            "target" : 34962
        },
        {
            "buffer" : 0,
            "byteLength" : 640,
            "byteOffset" : 29052,
            "target" : 34962
        },
        {
            "buffer" : 0,
            "byteLength" : 320,
            "byteOffset" : 29692,
            "target" : 34962
        },
        {
            "buffer" : 0,
            "byteLength" : 80,
            "byteOffset" : 30012
        },
        {
            "buffer" : 0,
            "byteLength" : 320,
            "byteOffset" : 30092
        }
    ],
    "buffers" : [
        {
            "byteLength" : 30412,
            "uri" : "data:application/octet-stream;base64,"
        }
    ],
    "images" : [
        {
            "mimeType" : "image/jpeg",
            "name" : "cabinet_rightdoor_reduced",
            "uri" : "data:image/jpeg;base64,"
        },
        {
            "mimeType" : "image/jpeg",
            "name" : "handle_vert_reduced",
            "uri" : "data:image/jpeg;base64,"
        }
    ],
    "materials" : [
        {
            "name" : "cabinet_rightdoor",
            "pbrMetallicRoughness" : {
                "baseColorTexture" : {
                    "index" : 0
                }
            }
        },
        {
            "name" : "handle_vert",
            "pbrMetallicRoughness" : {
                "baseColorTexture" : {
                    "index" : 1
                }
            }
        }
    ],
    "meshes" : [
        {
            "name" : "handle_cabinet_a2",
            "primitives" : [
                {
                    "attributes" : {
                        "NORMAL" : 2,
                        "POSITION" : 1,
                        "TANGENT" : 3,
                        "TEXCOORD_0" : 4
                    },
                    "indices" : 0,
                    "material" : 1
                }
            ]
        },
        {
            "name" : "cabinet_a2",
            "primitives" : [
                {
                    "attributes" : {
                        "NORMAL" : 7,
                        "POSITION" : 6,
                        "TANGENT" : 8,
                        "TEXCOORD_0" : 9
                    },
                    "indices" : 5,
                    "material" : 0
                }
            ]
        }
    ],
    "nodes" : [
        {
            "mesh" : 1,
            "name" : "cabinet_a2",
            "scale" : [
                0.9999998807907104,
                1.0,
                1.0
            ],
            "translation" : [
                -0.7929916381835938,
                -0.01822519302368164,
                -3.5762786865234375e-07
            ]
        },
        {
            "children" : [
                0
            ],
            "mesh" : 0,
            "name" : "handle_cabinet_a2",
            "rotation" : [
                0.7071068286895752,
                0.0,
                -0.0,
                0.7071067094802856
            ],
            "translation" : [
                -6.811690807342529,
                1.7373497486114502,
                -5.891566276550293
            ]
        },
        {
            "mesh" : 0,
            "name" : "handle_cabinet_a2",
            "rotation" : [
                0.7071068286895752,
                0.0,
                -0.0,
                0.7071067094802856
            ],
            "translation" : [
                -6.811690807342529,
                1.7373497486114502,
                -5.891566276550293
            ]
        }
    ],
    "samplers" : [
        {}
    ],
    "scene" : 0,
    "scenes" : [
        {
            "name" : "Scene",
            "nodes" : [
                1
            ]
        }
    ],
    "textures" : [
        {
            "sampler" : 0,
            "source" : 0
        },
        {
            "sampler" : 0,
            "source" : 1
        }
    ]
}
