{
    "accessors" : [
        {
            "bufferView" : 0,
            "componentType" : 5123,
            "count" : 534,
            "max" : [
                355
            ],
            "min" : [
                0
            ],
            "type" : "SCALAR"
        },
        {
            "bufferView" : 1,
            "componentType" : 5126,
            "count" : 356,
            "max" : [
                0.061393022537231445,
                0.032569095492362976,
                3.7420272827148438
            ],
            "min" : [
                -2.758784294128418,
                -0.12589740753173828,
                -4.112152099609375
            ],
            "type" : "VEC3"
        },
        {
            "bufferView" : 2,
            "componentType" : 5126,
            "count" : 356,
            "max" : [
                1.0,
                1.0,
                1.0
            ],
            "min" : [
                -1.0,
                -1.0,
                -1.0
            ],
            "type" : "VEC3"
        },
        {
            "bufferView" : 3,
            "componentType" : 5126,
            "count" : 356,
            "max" : [
                1.0,
                1.0,
                3.364469012012705e-05,
                1.0
            ],
            "min" : [
                -1.0,
                -1.0,
                -5.124508788867388e-06,
                1.0
            ],
            "type" : "VEC4"
        },
        {
            "bufferView" : 4,
            "componentType" : 5126,
            "count" : 356,
            "max" : [
                1.0,
                1.0
            ],
            "min" : [
                0.0,
                0.0
            ],
            "type" : "VEC2"
        },
        {
            "bufferView" : 5,
            "componentType" : 5123,
            "count" : 4032,
            "max" : [
                730
            ],
            "min" : [
                0
            ],
            "type" : "SCALAR"
        },
        {
            "bufferView" : 6,
            "componentType" : 5126,
            "count" : 731,
            "max" : [
                0.3749901056289673,
                1.903623342514038e-06,
                0.026121623814105988
            ],
            "min" : [
                -0.026125073432922363,
                -0.1748504638671875,
                -0.02612067013978958
            ],
            "type" : "VEC3"
        },
        {
            "bufferView" : 7,
            "componentType" : 5126,
            "count" : 731,
            "max" : [
                0.999969482421875,
                1.0,
                1.0
            ],
            "min" : [
                -1.0,
                -1.0,
                -1.0
            ],
            "type" : "VEC3"
        },
        {
            "bufferView" : 8,
            "componentType" : 5126,
            "count" : 731,
            "max" : [
                0.9999998211860657,
                0.9999918341636658,
                0.9875546097755432,
                1.0
            ],
            "min" : [
                -0.9999999403953552,
                -0.9920927882194519,
                -0.9904277920722961,
                1.0
            ],
            "type" : "VEC4"
        },
        {
            "bufferView" : 9,
            "componentType" : 5126,
            "count" : 731,
            "max" : [
                0.9999399781227112,
                0.9999400000015157
            ],
            "min" : [
                5.999999848427251e-05,
                0.64444699883461
            ],
            "type" : "VEC2"
        },
        {
            "bufferView" : 10,
            "componentType" : 5123,
            "count" : 870,
            "max" : [
                569
            ],
            "min" : [
                0
            ],
            "type" : "SCALAR"
        },
        {
            "bufferView" : 11,
            "componentType" : 5126,
            "count" : 570,
            "max" : [
                2.384185791015625e-07,
                0.15842723846435547,
                7.853771209716797
            ],
            "min" : [
                -2.8372788429260254,
                -0.00012683868408203125,
                -0.0
            ],
            "type" : "VEC3"
        },
        {
            "bufferView" : 12,
            "componentType" : 5126,
            "count" : 570,
            "max" : [
                1.0,
                1.0,
                1.0
            ],
            "min" : [
                -1.0,
                -1.0,
                -1.0
            ],
            "type" : "VEC3"
        },
        {
            "bufferView" : 13,
            "componentType" : 5126,
            "count" : 570,
            "max" : [
                1.0,
                1.0,
                2.2429171622206923e-06,
                1.0
            ],
            "min" : [
                -1.0,
                -1.0,
                -2.161775228159968e-06,
                1.0
            ],
            "type" : "VEC4"
        },
        {
            "bufferView" : 14,
            "componentType" : 5126,
            "count" : 570,
            "max" : [
                1.0,
                1.0
            ],
            "min" : [
                0.0,
                0.0
            ],
            "type" : "VEC2"
        },
        {
            "bufferView" : 15,
            "componentType" : 5123,
            "count" : 7716,
            "max" : [
                1388
            ],
            "min" : [
                0
            ],
            "type" : "SCALAR"
        },
        {
            "bufferView" : 16,
            "componentType" : 5126,
            "count" : 1389,
            "max" : [
                0.013257503509521484,
                0.06526851654052734,
                0.5089948773384094
            ],
            "min" : [
                -0.15120363235473633,
                0.019730564206838608,
                -0.15397097170352936
            ],
            "type" : "VEC3"
        },
        {
            "bufferView" : 17,
            "componentType" : 5126,
            "count" : 1389,
            "max" : [
                1.0,
                1.0,
                1.0
            ],
            "min" : [
                -1.0,
                -1.0,
                -1.0
            ],
            "type" : "VEC3"
        },
        {
            "bufferView" : 18,
            "componentType" : 5126,
            "count" : 1389,
            "max" : [
                1.0,
                1.0,
                0.9999849200248718,
                -1.0
            ],
            "min" : [
                -1.0,
                -0.12889137864112854,
                -0.9999857544898987,
                -1.0
            ],
            "type" : "VEC4"
        },
        {
            "bufferView" : 19,
            "componentType" : 5126,
            "count" : 1389,
            "max" : [
                1.0,
                1.0
            ],
            "min" : [
                0.0,
                0.0
            ],
            "type" : "VEC2"
        },
        {
            "bufferView" : 20,
            "componentType" : 5123,
            "count" : 4032,
            "max" : [
                730
            ],
            "min" : [
                0
            ],
            "type" : "SCALAR"
        },
        {
            "bufferView" : 21,
            "componentType" : 5126,
            "count" : 731,
            "max" : [
                0.3749901354312897,
                0.17485332489013672,
                0.026121389120817184
            ],
            "min" : [
                -0.026125043630599976,
                9.5367431640625e-07,
                -0.026120908558368683
            ],
            "type" : "VEC3"
        },
        {
            "bufferView" : 22,
            "componentType" : 5126,
            "count" : 731,
            "max" : [
                0.999969482421875,
                1.0,
                1.0
            ],
            "min" : [
                -0.999969482421875,
                -1.0,
                -1.0
            ],
            "type" : "VEC3"
        },
        {
            "bufferView" : 23,
            "componentType" : 5126,
            "count" : 731,
            "max" : [
                0.9999998211860657,
                0.9920929074287415,
                0.9875546097755432,
                -1.0
            ],
            "min" : [
                -0.9999999403953552,
                -0.9999918341636658,
                -0.9904277920722961,
                -1.0
            ],
            "type" : "VEC4"
        },
        {
            "bufferView" : 24,
            "componentType" : 5126,
            "count" : 731,
            "max" : [
                0.9999399781227112,
                0.9999400000015157
            ],
            "min" : [
                5.999999848427251e-05,
                0.64444699883461
            ],
            "type" : "VEC2"
        },
        {
            "bufferView" : 25,
            "componentType" : 5126,
            "count" : 11,
            "max" : [
                0.7916666666666667
            ],
            "min" : [
                0.375
            ],
            "type" : "SCALAR"
        },
        {
            "bufferView" : 26,
            "componentType" : 5126,
            "count" : 11,
            "max" : [
                0.7071068286895752,
                -1.8819970136974007e-05,
                0.2377990186214447,
                0.7071067094802856
            ],
            "min" : [
                0.665921688079834,
                -0.23779897391796112,
                1.882005926745478e-05,
                0.6659216284751892
            ],
            "type" : "VEC4"
        },
        {
            "bufferView" : 27,
            "componentType" : 5126,
            "count" : 10,
            "max" : [
                0.375
            ],
            "min" : [
                0.0
            ],
            "type" : "SCALAR"
        },
        {
            "bufferView" : 28,
            "componentType" : 5126,
            "count" : 10,
            "max" : [
                5.3020819734683755e-08,
                -0.0077384235337376595,
                8.615414515134034e-08,
                0.9999700784683228
            ],
            "min" : [
                -3.713843810260187e-08,
                -0.342020183801651,
                3.712311880121888e-08,
                0.9396926164627075
            ],
            "type" : "VEC4"
        },
        {
            "bufferView" : 29,
            "componentType" : 5126,
            "count" : 10,
            "max" : [
                0.375
            ],
            "min" : [
                0.0
            ],
            "type" : "SCALAR"
        },
        {
            "bufferView" : 30,
            "componentType" : 5126,
            "count" : 10,
            "max" : [
                5.3020819734683755e-08,
                -0.0077384235337376595,
                8.615414515134034e-08,
                0.9999700784683228
            ],
            "min" : [
                -3.713843810260187e-08,
                -0.342020183801651,
                3.712311880121888e-08,
                0.9396926164627075
            ],
            "type" : "VEC4"
        }
    ],
    "animations" : [
        {
            "channels" : [
                {
                    "sampler" : 0,
                    "target" : {
                        "node" : 0,
                        "path" : "rotation"
                    }
                },
                {
                    "sampler" : 1,
                    "target" : {
                        "node" : 3,
                        "path" : "rotation"
                    }
                },
                {
                    "sampler" : 2,
                    "target" : {
                        "node" : 4,
                        "path" : "rotation"
                    }
                }
            ],
            "samplers" : [
                {
                    "input" : 25,
                    "interpolation" : "LINEAR",
                    "output" : 26
                },
                {
                    "input" : 27,
                    "interpolation" : "LINEAR",
                    "output" : 28
                },
                {
                    "input" : 29,
                    "interpolation" : "LINEAR",
                    "output" : 30
                }
            ]
        }
    ],
    "asset" : {
        "generator" : "Khronos Blender glTF 2.0 exporter",
        "version" : "2.0"
    },
    "bufferViews" : [
        {
            "buffer" : 0,
            "byteLength" : 1068,
            "byteOffset" : 0,
            "target" : 34963
        },
        {
            "buffer" : 0,
            "byteLength" : 4272,
            "byteOffset" : 1068,
            "target" : 34962
        },
        {
            "buffer" : 0,
            "byteLength" : 4272,
            "byteOffset" : 5340,
            "target" : 34962
        },
        {
            "buffer" : 0,
            "byteLength" : 5696,
            "byteOffset" : 9612,
            "target" : 34962
        },
        {
            "buffer" : 0,
            "byteLength" : 2848,
            "byteOffset" : 15308,
            "target" : 34962
        },
        {
            "buffer" : 0,
            "byteLength" : 8064,
            "byteOffset" : 18156,
            "target" : 34963
        },
        {
            "buffer" : 0,
            "byteLength" : 8772,
            "byteOffset" : 26220,
            "target" : 34962
        },
        {
            "buffer" : 0,
            "byteLength" : 8772,
            "byteOffset" : 34992,
            "target" : 34962
        },
        {
            "buffer" : 0,
            "byteLength" : 11696,
            "byteOffset" : 43764,
            "target" : 34962
        },
        {
            "buffer" : 0,
            "byteLength" : 5848,
            "byteOffset" : 55460,
            "target" : 34962
        },
        {
            "buffer" : 0,
            "byteLength" : 1740,
            "byteOffset" : 61308,
            "target" : 34963
        },
        {
            "buffer" : 0,
            "byteLength" : 6840,
            "byteOffset" : 63048,
            "target" : 34962
        },
        {
            "buffer" : 0,
            "byteLength" : 6840,
            "byteOffset" : 69888,
            "target" : 34962
        },
        {
            "buffer" : 0,
            "byteLength" : 9120,
            "byteOffset" : 76728,
            "target" : 34962
        },
        {
            "buffer" : 0,
            "byteLength" : 4560,
            "byteOffset" : 85848,
            "target" : 34962
        },
        {
            "buffer" : 0,
            "byteLength" : 15432,
            "byteOffset" : 90408,
            "target" : 34963
        },
        {
            "buffer" : 0,
            "byteLength" : 16668,
            "byteOffset" : 105840,
            "target" : 34962
        },
        {
            "buffer" : 0,
            "byteLength" : 16668,
            "byteOffset" : 122508,
            "target" : 34962
        },
        {
            "buffer" : 0,
            "byteLength" : 22224,
            "byteOffset" : 139176,
            "target" : 34962
        },
        {
            "buffer" : 0,
            "byteLength" : 11112,
            "byteOffset" : 161400,
            "target" : 34962
        },
        {
            "buffer" : 0,
            "byteLength" : 8064,
            "byteOffset" : 172512,
            "target" : 34963
        },
        {
            "buffer" : 0,
            "byteLength" : 8772,
            "byteOffset" : 180576,
            "target" : 34962
        },
        {
            "buffer" : 0,
            "byteLength" : 8772,
            "byteOffset" : 189348,
            "target" : 34962
        },
        {
            "buffer" : 0,
            "byteLength" : 11696,
            "byteOffset" : 198120,
            "target" : 34962
        },
        {
            "buffer" : 0,
            "byteLength" : 5848,
            "byteOffset" : 209816,
            "target" : 34962
        },
        {
            "buffer" : 0,
            "byteLength" : 44,
            "byteOffset" : 215664
        },
        {
            "buffer" : 0,
            "byteLength" : 176,
            "byteOffset" : 215708
        },
        {
            "buffer" : 0,
            "byteLength" : 40,
            "byteOffset" : 215884
        },
        {
            "buffer" : 0,
            "byteLength" : 160,
            "byteOffset" : 215924
        },
        {
            "buffer" : 0,
            "byteLength" : 40,
            "byteOffset" : 216084
        },
        {
            "buffer" : 0,
            "byteLength" : 160,
            "byteOffset" : 216124
        }
    ],
    "buffers" : [
        {
            "byteLength" : 216284,
            "uri" : "data:application/octet-stream;base64,"
        }
    ],
    "materials" : [
        {
            "name" : "Material.037",
            "pbrMetallicRoughness" : {
                "baseColorFactor" : [
                    0.4178851246833801,
                    0.5711249709129333,
                    1.0,
                    1.0
                ],
                "roughnessFactor" : 0.4909090995788574
            }
        },
        {
            "name" : "Material.038",
            "pbrMetallicRoughness" : {
                "baseColorFactor" : [
                    0.4178851246833801,
                    0.5711249709129333,
                    1.0,
                    1.0
                ],
                "roughnessFactor" : 0.5
            }
        },
        {
            "name" : "Material.081",
            "pbrMetallicRoughness" : {
                "roughnessFactor" : 0.3272727131843567
            }
        },
        {
            "name" : "Material.082",
            "pbrMetallicRoughness" : {
                "roughnessFactor" : 0.3272727131843567
            }
        }
    ],
    "meshes" : [
        {
            "name" : "doorcatch_Cube.097",
            "primitives" : [
                {
                    "attributes" : {
                        "NORMAL" : 2,
                        "POSITION" : 1,
                        "TANGENT" : 3,
                        "TEXCOORD_0" : 4
                    },
                    "indices" : 0,
                    "material" : 1
                }
            ]
        },
        {
            "name" : "doorknob_Cube.001",
            "primitives" : [
                {
                    "attributes" : {
                        "NORMAL" : 7,
                        "POSITION" : 6,
                        "TANGENT" : 8,
                        "TEXCOORD_0" : 9
                    },
                    "indices" : 5,
                    "material" : 2
                }
            ]
        },
        {
            "name" : "door_right_Cube.095",
            "primitives" : [
                {
                    "attributes" : {
                        "NORMAL" : 12,
                        "POSITION" : 11,
                        "TANGENT" : 13,
                        "TEXCOORD_0" : 14
                    },
                    "indices" : 10,
                    "material" : 0
                }
            ]
        },
        {
            "name" : "doorknob_Cube.000",
            "primitives" : [
                {
                    "attributes" : {
                        "NORMAL" : 17,
                        "POSITION" : 16,
                        "TANGENT" : 18,
                        "TEXCOORD_0" : 19
                    },
                    "indices" : 15,
                    "material" : 2
                }
            ]
        },
        {
            "name" : "doorknob_Cube.003",
            "primitives" : [
                {
                    "attributes" : {
                        "NORMAL" : 22,
                        "POSITION" : 21,
                        "TANGENT" : 23,
                        "TEXCOORD_0" : 24
                    },
                    "indices" : 20,
                    "material" : 3
                }
            ]
        }
    ],
    "nodes" : [
        {
            "children" : [
                2,
                3,
                4
            ],
            "mesh" : 2,
            "name" : "door_right_Cube.095",
            "rotation" : [
                0.7071068286895752,
                -1.8819970136974007e-05,
                1.8820057448465377e-05,
                0.7071067094802856
            ],
            "scale" : [
                0.9999999403953552,
                1.0,
                1.0000001192092896
            ],
            "translation" : [
                3.099466323852539,
                7.849357604980469,
                9.376080513000488
            ]
        },
        {
            "mesh" : 0,
            "name" : "doorcatch_Cube.097",
            "rotation" : [
                0.7071068286895752,
                -1.8819970136974007e-05,
                1.881997195596341e-05,
                0.7071067094802856
            ],
            "translation" : [
                0.24525666236877441,
                3.7372045516967773,
                9.48721981048584
            ]
        },
        {
            "mesh" : 3,
            "name" : "doorknob_Cube.000",
            "rotation" : [
                -7.949311431332262e-09,
                -1.2275727101496159e-09,
                -8.702048859277056e-09,
                1.0
            ],
            "scale" : [
                1.0,
                0.9999998807907104,
                1.0
            ],
            "translation" : [
                -2.542024850845337,
                -0.06678199768066406,
                4.489575386047363
            ]
        },
        {
            "mesh" : 1,
            "name" : "doorknob_Cube.001",
            "rotation" : [
                -7.94931587222436e-09,
                -5.0335767554088306e-08,
                7.222116238381204e-08,
                1.0
            ],
            "scale" : [
                1.0,
                0.9999998211860657,
                0.9999998807907104
            ],
            "translation" : [
                -2.606405019760132,
                -0.00614166259765625,
                4.488948822021484
            ]
        },
        {
            "mesh" : 4,
            "name" : "doorknob_Cube.002",
            "rotation" : [
                -7.94931587222436e-09,
                -5.0335767554088306e-08,
                7.222116238381204e-08,
                1.0
            ],
            "scale" : [
                1.0,
                0.9999998211860657,
                0.9999998807907104
            ],
            "translation" : [
                -2.6063921451568604,
                0.11569595336914062,
                4.488949775695801
            ]
        }
    ],
    "scene" : 0,
    "scenes" : [
        {
            "name" : "Scene",
            "nodes" : [
                0,
                1
            ]
        }
    ]
}
