{
    "accessors" : [
        {
            "bufferView" : 0,
            "componentType" : 5123,
            "count" : 2592,
            "max" : [
                475
            ],
            "min" : [
                0
            ],
            "type" : "SCALAR"
        },
        {
            "bufferView" : 1,
            "componentType" : 5126,
            "count" : 476,
            "max" : [
                0.3134889304637909,
                0.09601259231567383,
                0.020945072174072266
            ],
            "min" : [
                -0.31185242533683777,
                -0.06426477432250977,
                -0.020859956741333008
            ],
            "type" : "VEC3"
        },
        {
            "bufferView" : 2,
            "componentType" : 5126,
            "count" : 476,
            "max" : [
                1.0,
                0.999176025390625,
                1.0
            ],
            "min" : [
                -0.999969482421875,
                -0.9991455078125,
                -1.0
            ],
            "type" : "VEC3"
        },
        {
            "bufferView" : 3,
            "componentType" : 5126,
            "count" : 476,
            "max" : [
                0.9992708563804626,
                0.9999788999557495,
                0.06991416960954666,
                1.0
            ],
            "min" : [
                -6.373667565640062e-05,
                -0.9999790191650391,
                -0.06740811467170715,
                1.0
            ],
            "type" : "VEC4"
        },
        {
            "bufferView" : 4,
            "componentType" : 5126,
            "count" : 476,
            "max" : [
                0.9999589920043945,
                0.999959000000672
            ],
            "min" : [
                4.099999932805076e-05,
                0.8285910040140152
            ],
            "type" : "VEC2"
        },
        {
            "bufferView" : 5,
            "componentType" : 5121,
            "count" : 84,
            "max" : [
                55
            ],
            "min" : [
                0
            ],
            "type" : "SCALAR"
        },
        {
            "bufferView" : 6,
            "componentType" : 5126,
            "count" : 56,
            "max" : [
                1.2438544034957886,
                -0.0650486871600151,
                0.3846879005432129
            ],
            "min" : [
                -1.289453387260437,
                -1.8374814987182617,
                -0.3475968837738037
            ],
            "type" : "VEC3"
        },
        {
            "bufferView" : 7,
            "componentType" : 5126,
            "count" : 56,
            "max" : [
                1.0,
                1.0,
                1.0
            ],
            "min" : [
                -1.0,
                -1.0,
                -1.0
            ],
            "type" : "VEC3"
        },
        {
            "bufferView" : 8,
            "componentType" : 5126,
            "count" : 56,
            "max" : [
                0.13084271550178528,
                0.9999998807907104,
                1.0,
                1.0
            ],
            "min" : [
                -0.00043467603973113,
                -1.0,
                -1.0,
                1.0
            ],
            "type" : "VEC4"
        },
        {
            "bufferView" : 9,
            "componentType" : 5126,
            "count" : 56,
            "max" : [
                0.9331769943237305,
                0.8571559935808182
            ],
            "min" : [
                0.07326100021600723,
                0.12502402067184448
            ],
            "type" : "VEC2"
        },
        {
            "bufferView" : 10,
            "componentType" : 5126,
            "count" : 20,
            "max" : [
                0.7916666666666667
            ],
            "min" : [
                0.0
            ],
            "type" : "SCALAR"
        },
        {
            "bufferView" : 11,
            "componentType" : 5126,
            "count" : 20,
            "max" : [
                -1.597348690032959,
                3.294994592666626,
                -4.364521503448486
            ],
            "min" : [
                -1.597348690032959,
                3.287707567214966,
                -5.7956624031066895
            ],
            "type" : "VEC3"
        }
    ],
    "animations" : [
        {
            "channels" : [
                {
                    "sampler" : 0,
                    "target" : {
                        "node" : 1,
                        "path" : "translation"
                    }
                },
                {
                    "sampler" : 0,
                    "target" : {
                        "node" : 1,
                        "path" : "translation"
                    }
                }
            ],
            "samplers" : [
                {
                    "input" : 10,
                    "interpolation" : "LINEAR",
                    "output" : 11
                }
            ]
        }
    ],
    "asset" : {
        "generator" : "Khronos Blender glTF 2.0 exporter",
        "version" : "2.0"
    },
    "bufferViews" : [
        {
            "buffer" : 0,
            "byteLength" : 5184,
            "byteOffset" : 0,
            "target" : 34963
        },
        {
            "buffer" : 0,
            "byteLength" : 5712,
            "byteOffset" : 5184,
            "target" : 34962
        },
        {
            "buffer" : 0,
            "byteLength" : 5712,
            "byteOffset" : 10896,
            "target" : 34962
        },
        {
            "buffer" : 0,
            "byteLength" : 7616,
            "byteOffset" : 16608,
            "target" : 34962
        },
        {
            "buffer" : 0,
            "byteLength" : 3808,
            "byteOffset" : 24224,
            "target" : 34962
        },
        {
            "buffer" : 0,
            "byteLength" : 84,
            "byteOffset" : 28032,
            "target" : 34963
        },
        {
            "buffer" : 0,
            "byteLength" : 672,
            "byteOffset" : 28116,
            "target" : 34962
        },
        {
            "buffer" : 0,
            "byteLength" : 672,
            "byteOffset" : 28788,
            "target" : 34962
        },
        {
            "buffer" : 0,
            "byteLength" : 896,
            "byteOffset" : 29460,
            "target" : 34962
        },
        {
            "buffer" : 0,
            "byteLength" : 448,
            "byteOffset" : 30356,
            "target" : 34962
        },
        {
            "buffer" : 0,
            "byteLength" : 80,
            "byteOffset" : 30804
        },
        {
            "buffer" : 0,
            "byteLength" : 240,
            "byteOffset" : 30884
        }
    ],
    "buffers" : [
        {
            "byteLength" : 31124,
            "uri" : "data:application/octet-stream;base64,"
        }
    ],
    "images" : [
        {
            "mimeType" : "image/jpeg",
            "name" : "drawer_large_reduced",
            "uri" : "data:image/jpeg;base64,"
        },
        {
            "mimeType" : "image/jpeg",
            "name" : "handle_hori_reduced",
            "uri" : "data:image/jpeg;base64,"
        }
    ],
    "materials" : [
        {
            "name" : "drawer_large",
            "pbrMetallicRoughness" : {
                "baseColorTexture" : {
                    "index" : 0
                }
            }
        },
        {
            "name" : "handle_hori",
            "pbrMetallicRoughness" : {
                "baseColorTexture" : {
                    "index" : 1
                }
            }
        }
    ],
    "meshes" : [
        {
            "name" : "handle_h",
            "primitives" : [
                {
                    "attributes" : {
                        "NORMAL" : 2,
                        "POSITION" : 1,
                        "TANGENT" : 3,
                        "TEXCOORD_0" : 4
                    },
                    "indices" : 0,
                    "material" : 1
                }
            ]
        },
        {
            "name" : "drawer_h",
            "primitives" : [
                {
                    "attributes" : {
                        "NORMAL" : 7,
                        "POSITION" : 6,
                        "TANGENT" : 8,
                        "TEXCOORD_0" : 9
                    },
                    "indices" : 5,
                    "material" : 0
                }
            ]
        }
    ],
    "nodes" : [
        {
            "mesh" : 1,
            "name" : "drawer_h",
            "rotation" : [
                -7.94662469161267e-09,
                0.0,
                -0.0,
                1.0
            ],
            "scale" : [
                1.2523342370986938,
                1.0,
                0.9999999403953552
            ],
            "translation" : [
                1.1920928955078125e-07,
                0.0,
                2.384185791015625e-07
            ]
        },
        {
            "children" : [
                0
            ],
            "mesh" : 0,
            "name" : "handle_h",
            "rotation" : [
                0.7071068286895752,
                0.0,
                -0.0,
                0.7071067094802856
            ],
            "translation" : [
                -1.597348690032959,
                3.2876672744750977,
                -5.803593158721924
            ]
        },
        {
            "mesh" : 0,
            "name" : "handle_h",
            "rotation" : [
                0.7071068286895752,
                0.0,
                -0.0,
                0.7071067094802856
            ],
            "translation" : [
                -1.597348690032959,
                3.2876672744750977,
                -5.803593158721924
            ]
        }
    ],
    "samplers" : [
        {}
    ],
    "scene" : 0,
    "scenes" : [
        {
            "name" : "Scene",
            "nodes" : [
                1
            ]
        }
    ],
    "textures" : [
        {
            "sampler" : 0,
            "source" : 0
        },
        {
            "sampler" : 0,
            "source" : 1
        }
    ]
}
