{
    "accessors" : [
        {
            "bufferView" : 0,
            "componentType" : 5121,
            "count" : 180,
            "max" : [
                43
            ],
            "min" : [
                0
            ],
            "type" : "SCALAR"
        },
        {
            "bufferView" : 1,
            "componentType" : 5126,
            "count" : 44,
            "max" : [
                -0.6272754669189453,
                -0.9475674033164978,
                0.017095552757382393
            ],
            "min" : [
                -0.9156850576400757,
                -1.0516241788864136,
                -0.6547414660453796
            ],
            "type" : "VEC3"
        },
        {
            "bufferView" : 2,
            "componentType" : 5126,
            "count" : 44,
            "max" : [
                -0.22803430259227753,
                0.9689931869506836,
                0.11609241366386414
            ],
            "min" : [
                -0.9971923232078552,
                -0.9689931869506836,
                -0.7869197726249695
            ],
            "type" : "VEC3"
        },
        {
            "bufferView" : 3,
            "componentType" : 5126,
            "count" : 44,
            "max" : [
                0.8715972304344177,
                0.19799892604351044,
                -0.463575541973114,
                1.0
            ],
            "min" : [
                -0.28466957807540894,
                -0.24217066168785095,
                -0.983223557472229,
                1.0
            ],
            "type" : "VEC4"
        },
        {
            "bufferView" : 4,
            "componentType" : 5126,
            "count" : 44,
            "max" : [
                0.9999212026596069,
                0.999921246417216
            ],
            "min" : [
                7.875358278397471e-05,
                0.6896086037158966
            ],
            "type" : "VEC2"
        },
        {
            "bufferView" : 5,
            "componentType" : 5123,
            "count" : 14568,
            "max" : [
                3004
            ],
            "min" : [
                0
            ],
            "type" : "SCALAR"
        },
        {
            "bufferView" : 6,
            "componentType" : 5126,
            "count" : 3005,
            "max" : [
                5.077947616577148,
                1.4692095518112183,
                10.084830284118652
            ],
            "min" : [
                -6.098938941955566,
                -1.4687761068344116,
                -4.181087017059326
            ],
            "type" : "VEC3"
        },
        {
            "bufferView" : 7,
            "componentType" : 5126,
            "count" : 3005,
            "max" : [
                1.0,
                1.0,
                1.0
            ],
            "min" : [
                -1.0,
                -1.0,
                -1.0
            ],
            "type" : "VEC3"
        },
        {
            "bufferView" : 8,
            "componentType" : 5126,
            "count" : 3005,
            "max" : [
                0.9999999403953552,
                1.0,
                0.9999998211860657,
                1.0
            ],
            "min" : [
                -0.9999970197677612,
                -1.0,
                -0.9999867081642151,
                -1.0
            ],
            "type" : "VEC4"
        },
        {
            "bufferView" : 9,
            "componentType" : 5126,
            "count" : 3005,
            "max" : [
                1.0,
                1.0
            ],
            "min" : [
                0.0,
                0.0
            ],
            "type" : "VEC2"
        },
        {
            "bufferView" : 10,
            "componentType" : 5121,
            "count" : 180,
            "max" : [
                43
            ],
            "min" : [
                0
            ],
            "type" : "SCALAR"
        },
        {
            "bufferView" : 11,
            "componentType" : 5126,
            "count" : 44,
            "max" : [
                -0.6269950270652771,
                1.052056908607483,
                0.0164223313331604
            ],
            "min" : [
                -0.9154045581817627,
                0.9480001330375671,
                -0.6554147005081177
            ],
            "type" : "VEC3"
        },
        {
            "bufferView" : 12,
            "componentType" : 5126,
            "count" : 44,
            "max" : [
                -0.22800378501415253,
                0.9689931869506836,
                0.11609241366386414
            ],
            "min" : [
                -0.9971923232078552,
                -0.9689931869506836,
                -0.7869197726249695
            ],
            "type" : "VEC3"
        },
        {
            "bufferView" : 13,
            "componentType" : 5126,
            "count" : 44,
            "max" : [
                0.8715944886207581,
                0.19799380004405975,
                -0.4635779857635498,
                1.0
            ],
            "min" : [
                -0.2846519649028778,
                -0.24220247566699982,
                -0.9832234978675842,
                1.0
            ],
            "type" : "VEC4"
        },
        {
            "bufferView" : 14,
            "componentType" : 5126,
            "count" : 44,
            "max" : [
                0.9999212622642517,
                0.9999212473412626
            ],
            "min" : [
                7.87526587373577e-05,
                0.6896157562732697
            ],
            "type" : "VEC2"
        }
    ],
    "asset" : {
        "generator" : "Khronos Blender glTF 2.0 exporter",
        "version" : "2.0"
    },
    "bufferViews" : [
        {
            "buffer" : 0,
            "byteLength" : 180,
            "byteOffset" : 0,
            "target" : 34963
        },
        {
            "buffer" : 0,
            "byteLength" : 528,
            "byteOffset" : 180,
            "target" : 34962
        },
        {
            "buffer" : 0,
            "byteLength" : 528,
            "byteOffset" : 708,
            "target" : 34962
        },
        {
            "buffer" : 0,
            "byteLength" : 704,
            "byteOffset" : 1236,
            "target" : 34962
        },
        {
            "buffer" : 0,
            "byteLength" : 352,
            "byteOffset" : 1940,
            "target" : 34962
        },
        {
            "buffer" : 0,
            "byteLength" : 29136,
            "byteOffset" : 2292,
            "target" : 34963
        },
        {
            "buffer" : 0,
            "byteLength" : 36060,
            "byteOffset" : 31428,
            "target" : 34962
        },
        {
            "buffer" : 0,
            "byteLength" : 36060,
            "byteOffset" : 67488,
            "target" : 34962
        },
        {
            "buffer" : 0,
            "byteLength" : 48080,
            "byteOffset" : 103548,
            "target" : 34962
        },
        {
            "buffer" : 0,
            "byteLength" : 24040,
            "byteOffset" : 151628,
            "target" : 34962
        },
        {
            "buffer" : 0,
            "byteLength" : 180,
            "byteOffset" : 175668,
            "target" : 34963
        },
        {
            "buffer" : 0,
            "byteLength" : 528,
            "byteOffset" : 175848,
            "target" : 34962
        },
        {
            "buffer" : 0,
            "byteLength" : 528,
            "byteOffset" : 176376,
            "target" : 34962
        },
        {
            "buffer" : 0,
            "byteLength" : 704,
            "byteOffset" : 176904,
            "target" : 34962
        },
        {
            "buffer" : 0,
            "byteLength" : 352,
            "byteOffset" : 177608,
            "target" : 34962
        }
    ],
    "buffers" : [
        {
            "byteLength" : 177960,
            "uri" : "data:application/octet-stream;base64,"
        }
    ],
    "materials" : [
        {
            "name" : "Material.023",
            "pbrMetallicRoughness" : {
                "roughnessFactor" : 0.4272727370262146
            }
        },
        {
            "name" : "Material.028",
            "pbrMetallicRoughness" : {
                "baseColorFactor" : [
                    0.02488747052848339,
                    0.007688304875046015,
                    1.0,
                    1.0
                ],
                "metallicFactor" : 0.48181819915771484,
                "roughnessFactor" : 0.47272729873657227
            }
        },
        {
            "name" : "Material.029",
            "pbrMetallicRoughness" : {
                "baseColorFactor" : [
                    1.0,
                    0.016441909596323967,
                    0.0,
                    1.0
                ],
                "metallicFactor" : 0.5090909004211426,
                "roughnessFactor" : 0.47272729873657227
            }
        }
    ],
    "meshes" : [
        {
            "name" : "Cylinder.030",
            "primitives" : [
                {
                    "attributes" : {
                        "NORMAL" : 2,
                        "POSITION" : 1,
                        "TANGENT" : 3,
                        "TEXCOORD_0" : 4
                    },
                    "indices" : 0,
                    "material" : 2
                },
                {
                    "attributes" : {
                        "NORMAL" : 7,
                        "POSITION" : 6,
                        "TANGENT" : 8,
                        "TEXCOORD_0" : 9
                    },
                    "indices" : 5,
                    "material" : 0
                },
                {
                    "attributes" : {
                        "NORMAL" : 12,
                        "POSITION" : 11,
                        "TANGENT" : 13,
                        "TEXCOORD_0" : 14
                    },
                    "indices" : 10,
                    "material" : 1
                }
            ]
        }
    ],
    "nodes" : [
        {
            "mesh" : 0,
            "name" : "Cylinder.016",
            "rotation" : [
                0.13867297768592834,
                0.13863632082939148,
                -0.6933756470680237,
                0.6933830380439758
            ],
            "scale" : [
                0.06629346311092377,
                0.4589215815067291,
                0.06629346311092377
            ],
            "translation" : [
                -5.017162799835205,
                4.264568328857422,
                -7.804583549499512
            ]
        }
    ],
    "scene" : 0,
    "scenes" : [
        {
            "name" : "Scene",
            "nodes" : [
                0
            ]
        }
    ]
}
