{
    "accessors" : [
        {
            "bufferView" : 0,
            "componentType" : 5121,
            "count" : 576,
            "max" : [
                118
            ],
            "min" : [
                0
            ],
            "type" : "SCALAR"
        },
        {
            "bufferView" : 1,
            "componentType" : 5126,
            "count" : 119,
            "max" : [
                0.01854860968887806,
                0.01835775189101696,
                0.047793395817279816
            ],
            "min" : [
                -0.01845407485961914,
                -0.01839018240571022,
                0.037870172411203384
            ],
            "type" : "VEC3"
        },
        {
            "bufferView" : 2,
            "componentType" : 5126,
            "count" : 119,
            "max" : [
                0.7533494234085083,
                0.7633900046348572,
                1.0
            ],
            "min" : [
                -0.7533494234085083,
                -0.7633900046348572,
                -1.0
            ],
            "type" : "VEC3"
        },
        {
            "bufferView" : 3,
            "componentType" : 5126,
            "count" : 119,
            "max" : [
                0.9630131721496582,
                0.9692198932170868
            ],
            "min" : [
                0.6767903566360474,
                0.7985177934169769
            ],
            "type" : "VEC2"
        },
        {
            "bufferView" : 4,
            "componentType" : 5123,
            "count" : 2616,
            "max" : [
                483
            ],
            "min" : [
                0
            ],
            "type" : "SCALAR"
        },
        {
            "bufferView" : 5,
            "componentType" : 5126,
            "count" : 484,
            "max" : [
                0.11764001846313477,
                0.11757659912109375,
                0.03908228874206543
            ],
            "min" : [
                -0.11754560470581055,
                -0.11760902404785156,
                -0.05069231986999512
            ],
            "type" : "VEC3"
        },
        {
            "bufferView" : 6,
            "componentType" : 5126,
            "count" : 484,
            "max" : [
                0.9974669814109802,
                0.9971618056297302,
                0.9977416396141052
            ],
            "min" : [
                -0.9974669814109802,
                -0.9971618056297302,
                -1.0
            ],
            "type" : "VEC3"
        },
        {
            "bufferView" : 7,
            "componentType" : 5126,
            "count" : 484,
            "max" : [
                0.8194332718849182,
                0.9223403185606003
            ],
            "min" : [
                0.05386814475059509,
                0.04372763633728027
            ],
            "type" : "VEC2"
        },
        {
            "bufferView" : 8,
            "componentType" : 5121,
            "count" : 756,
            "max" : [
                253
            ],
            "min" : [
                0
            ],
            "type" : "SCALAR"
        },
        {
            "bufferView" : 9,
            "componentType" : 5126,
            "count" : 254,
            "max" : [
                0.07120704650878906,
                0.07343865185976028,
                -0.03616022318601608
            ],
            "min" : [
                -0.0715637132525444,
                -0.06933212280273438,
                -0.17221832275390625
            ],
            "type" : "VEC3"
        },
        {
            "bufferView" : 10,
            "componentType" : 5126,
            "count" : 254,
            "max" : [
                0.964995265007019,
                0.964995265007019,
                0.6657002568244934
            ],
            "min" : [
                -0.964995265007019,
                -0.964995265007019,
                -0.6657002568244934
            ],
            "type" : "VEC3"
        },
        {
            "bufferView" : 11,
            "componentType" : 5126,
            "count" : 254,
            "max" : [
                0.44591107964515686,
                0.4459110498428345
            ],
            "min" : [
                0.046276479959487915,
                0.04627645015716553
            ],
            "type" : "VEC2"
        }
    ],
    "asset" : {
        "generator" : "Khronos Blender glTF 2.0 exporter",
        "version" : "2.0"
    },
    "bufferViews" : [
        {
            "buffer" : 0,
            "byteLength" : 576,
            "byteOffset" : 0,
            "target" : 34963
        },
        {
            "buffer" : 0,
            "byteLength" : 1428,
            "byteOffset" : 576,
            "target" : 34962
        },
        {
            "buffer" : 0,
            "byteLength" : 1428,
            "byteOffset" : 2004,
            "target" : 34962
        },
        {
            "buffer" : 0,
            "byteLength" : 952,
            "byteOffset" : 3432,
            "target" : 34962
        },
        {
            "buffer" : 0,
            "byteLength" : 5232,
            "byteOffset" : 4384,
            "target" : 34963
        },
        {
            "buffer" : 0,
            "byteLength" : 5808,
            "byteOffset" : 9616,
            "target" : 34962
        },
        {
            "buffer" : 0,
            "byteLength" : 5808,
            "byteOffset" : 15424,
            "target" : 34962
        },
        {
            "buffer" : 0,
            "byteLength" : 3872,
            "byteOffset" : 21232,
            "target" : 34962
        },
        {
            "buffer" : 0,
            "byteLength" : 756,
            "byteOffset" : 25104,
            "target" : 34963
        },
        {
            "buffer" : 0,
            "byteLength" : 3048,
            "byteOffset" : 25860,
            "target" : 34962
        },
        {
            "buffer" : 0,
            "byteLength" : 3048,
            "byteOffset" : 28908,
            "target" : 34962
        },
        {
            "buffer" : 0,
            "byteLength" : 2032,
            "byteOffset" : 31956,
            "target" : 34962
        }
    ],
    "buffers" : [
        {
            "byteLength" : 33988,
            "uri" : "data:application/octet-stream;base64,"
        }
    ],
    "materials" : [
        {
            "name" : "fumehoodknob.003",
            "pbrMetallicRoughness" : {
                "roughnessFactor" : 0.38181817531585693
            }
        },
        {
            "name" : "fumehoodknobbase.003",
            "pbrMetallicRoughness" : {
                "roughnessFactor" : 0.5090909004211426
            }
        },
        {
            "name" : "Material.044",
            "pbrMetallicRoughness" : {
                "baseColorFactor" : [
                    0.031077833846211433,
                    0.12941230833530426,
                    1.0,
                    1.0
                ],
                "roughnessFactor" : 0.47272729873657227
            }
        }
    ],
    "meshes" : [
        {
            "name" : "Cube.004",
            "primitives" : [
                {
                    "attributes" : {
                        "NORMAL" : 2,
                        "POSITION" : 1,
                        "TEXCOORD_0" : 3
                    },
                    "indices" : 0,
                    "material" : 2
                },
                {
                    "attributes" : {
                        "NORMAL" : 6,
                        "POSITION" : 5,
                        "TEXCOORD_0" : 7
                    },
                    "indices" : 4,
                    "material" : 0
                },
                {
                    "attributes" : {
                        "NORMAL" : 10,
                        "POSITION" : 9,
                        "TEXCOORD_0" : 11
                    },
                    "indices" : 8,
                    "material" : 1
                }
            ]
        }
    ],
    "nodes" : [
        {
            "mesh" : 0,
            "name" : "fumehoodknob.002",
            "rotation" : [
                0.0,
                -2.244918141514063e-05,
                -0.0,
                1.0
            ],
            "translation" : [
                2.9583494663238525,
                5.571354866027832,
                -4.653688430786133
            ]
        }
    ],
    "scene" : 0,
    "scenes" : [
        {
            "name" : "Scene",
            "nodes" : [
                0
            ]
        }
    ]
}
