{
    "accessors" : [
        {
            "bufferView" : 0,
            "componentType" : 5121,
            "count" : 132,
            "max" : [
                59
            ],
            "min" : [
                0
            ],
            "type" : "SCALAR"
        },
        {
            "bufferView" : 1,
            "componentType" : 5126,
            "count" : 60,
            "max" : [
                2.774923324584961,
                0.24097633361816406,
                1.0000004768371582
            ],
            "min" : [
                -2.7774314880371094,
                -0.2190690040588379,
                -1.0
            ],
            "type" : "VEC3"
        },
        {
            "bufferView" : 2,
            "componentType" : 5126,
            "count" : 60,
            "max" : [
                0.6292306184768677,
                1.0,
                1.0
            ],
            "min" : [
                -0.6293221712112427,
                -1.0,
                -1.0
            ],
            "type" : "VEC3"
        },
        {
            "bufferView" : 3,
            "componentType" : 5126,
            "count" : 60,
            "max" : [
                0.999999463558197,
                0.6292341351509094,
                0.058890849351882935,
                1.0
            ],
            "min" : [
                -0.7771791219711304,
                -0.6292900443077087,
                -0.059363845735788345,
                1.0
            ],
            "type" : "VEC4"
        },
        {
            "bufferView" : 4,
            "componentType" : 5126,
            "count" : 60,
            "max" : [
                0.9999079704284668,
                0.9999079999979585
            ],
            "min" : [
                9.200000204145908e-05,
                0.15898901224136353
            ],
            "type" : "VEC2"
        },
        {
            "bufferView" : 5,
            "componentType" : 5121,
            "count" : 210,
            "max" : [
                106
            ],
            "min" : [
                0
            ],
            "type" : "SCALAR"
        },
        {
            "bufferView" : 6,
            "componentType" : 5126,
            "count" : 107,
            "max" : [
                3.043821334838867,
                2.141843318939209,
                2.701514720916748
            ],
            "min" : [
                -3.0438694953918457,
                -1.0974745750427246,
                -2.6815237998962402
            ],
            "type" : "VEC3"
        },
        {
            "bufferView" : 7,
            "componentType" : 5126,
            "count" : 107,
            "max" : [
                1.0,
                1.0,
                1.0
            ],
            "min" : [
                -1.0,
                -1.0,
                -1.0
            ],
            "type" : "VEC3"
        },
        {
            "bufferView" : 8,
            "componentType" : 5126,
            "count" : 107,
            "max" : [
                1.0,
                4.7902456572046503e-05,
                9.311787039223418e-07,
                1.0
            ],
            "min" : [
                -1.0,
                -1.0,
                -1.0,
                -1.0
            ],
            "type" : "VEC4"
        },
        {
            "bufferView" : 9,
            "componentType" : 5126,
            "count" : 107,
            "max" : [
                0.9819999933242798,
                0.9998029999987921
            ],
            "min" : [
                0.00019700000120792538,
                0.00019699335098266602
            ],
            "type" : "VEC2"
        },
        {
            "bufferView" : 10,
            "componentType" : 5121,
            "count" : 60,
            "max" : [
                39
            ],
            "min" : [
                0
            ],
            "type" : "SCALAR"
        },
        {
            "bufferView" : 11,
            "componentType" : 5126,
            "count" : 40,
            "max" : [
                2.809652328491211,
                1.1186652183532715,
                0.068511962890625
            ],
            "min" : [
                -2.8082799911499023,
                -1.982874870300293,
                -0.04811692237854004
            ],
            "type" : "VEC3"
        },
        {
            "bufferView" : 12,
            "componentType" : 5126,
            "count" : 40,
            "max" : [
                1.0,
                1.0,
                1.0
            ],
            "min" : [
                -1.0,
                -1.0,
                -1.0
            ],
            "type" : "VEC3"
        },
        {
            "bufferView" : 13,
            "componentType" : 5126,
            "count" : 40,
            "max" : [
                1.0,
                0.9999821782112122,
                1.5610537502652733e-06,
                1.0
            ],
            "min" : [
                -4.4886044634040445e-05,
                -0.9999821186065674,
                -0.005973327439278364,
                1.0
            ],
            "type" : "VEC4"
        },
        {
            "bufferView" : 14,
            "componentType" : 5126,
            "count" : 40,
            "max" : [
                0.9999340176582336,
                0.9999339999994845
            ],
            "min" : [
                6.600000051548705e-05,
                0.5681680142879486
            ],
            "type" : "VEC2"
        }
    ],
    "asset" : {
        "generator" : "Khronos Blender glTF 2.0 exporter",
        "version" : "2.0"
    },
    "bufferViews" : [
        {
            "buffer" : 0,
            "byteLength" : 132,
            "byteOffset" : 0,
            "target" : 34963
        },
        {
            "buffer" : 0,
            "byteLength" : 720,
            "byteOffset" : 132,
            "target" : 34962
        },
        {
            "buffer" : 0,
            "byteLength" : 720,
            "byteOffset" : 852,
            "target" : 34962
        },
        {
            "buffer" : 0,
            "byteLength" : 960,
            "byteOffset" : 1572,
            "target" : 34962
        },
        {
            "buffer" : 0,
            "byteLength" : 480,
            "byteOffset" : 2532,
            "target" : 34962
        },
        {
            "buffer" : 0,
            "byteLength" : 210,
            "byteOffset" : 3012,
            "target" : 34963
        },
        {
            "buffer" : 0,
            "byteLength" : 1284,
            "byteOffset" : 3224,
            "target" : 34962
        },
        {
            "buffer" : 0,
            "byteLength" : 1284,
            "byteOffset" : 4508,
            "target" : 34962
        },
        {
            "buffer" : 0,
            "byteLength" : 1712,
            "byteOffset" : 5792,
            "target" : 34962
        },
        {
            "buffer" : 0,
            "byteLength" : 856,
            "byteOffset" : 7504,
            "target" : 34962
        },
        {
            "buffer" : 0,
            "byteLength" : 60,
            "byteOffset" : 8360,
            "target" : 34963
        },
        {
            "buffer" : 0,
            "byteLength" : 480,
            "byteOffset" : 8420,
            "target" : 34962
        },
        {
            "buffer" : 0,
            "byteLength" : 480,
            "byteOffset" : 8900,
            "target" : 34962
        },
        {
            "buffer" : 0,
            "byteLength" : 640,
            "byteOffset" : 9380,
            "target" : 34962
        },
        {
            "buffer" : 0,
            "byteLength" : 320,
            "byteOffset" : 10020,
            "target" : 34962
        }
    ],
    "buffers" : [
        {
            "byteLength" : 10340,
            "uri" : "data:application/octet-stream;base64,"
        }
    ],
    "materials" : [
        {
            "name" : "Material.052",
            "pbrMetallicRoughness" : {
                "baseColorFactor" : [
                    0.7431661486625671,
                    0.7420830726623535,
                    0.5144444108009338,
                    1.0
                ]
            }
        },
        {
            "name" : "Material.053",
            "pbrMetallicRoughness" : {
                "baseColorFactor" : [
                    0.7431661486625671,
                    0.7420830726623535,
                    0.5144444108009338,
                    1.0
                ]
            }
        },
        {
            "name" : "Material.054",
            "pbrMetallicRoughness" : {
                "baseColorFactor" : [
                    0.7431661486625671,
                    0.7420830726623535,
                    0.5144444108009338,
                    1.0
                ]
            }
        }
    ],
    "meshes" : [
        {
            "name" : "fumehoodfront_Plane.008",
            "primitives" : [
                {
                    "attributes" : {
                        "NORMAL" : 2,
                        "POSITION" : 1,
                        "TANGENT" : 3,
                        "TEXCOORD_0" : 4
                    },
                    "indices" : 0,
                    "material" : 2
                }
            ]
        },
        {
            "name" : "fumehoodhousing_Plane",
            "primitives" : [
                {
                    "attributes" : {
                        "NORMAL" : 7,
                        "POSITION" : 6,
                        "TANGENT" : 8,
                        "TEXCOORD_0" : 9
                    },
                    "indices" : 5,
                    "material" : 1
                }
            ]
        },
        {
            "name" : "fumehoodbase_Plane.009",
            "primitives" : [
                {
                    "attributes" : {
                        "NORMAL" : 12,
                        "POSITION" : 11,
                        "TANGENT" : 13,
                        "TEXCOORD_0" : 14
                    },
                    "indices" : 10,
                    "material" : 0
                }
            ]
        }
    ],
    "nodes" : [
        {
            "mesh" : 2,
            "name" : "fumehoodbase_Plane.009",
            "rotation" : [
                0.7071068286895752,
                0.0,
                -0.0,
                0.7071067094802856
            ],
            "translation" : [
                5.893671989440918,
                3.832324981689453,
                -5.950629711151123
            ]
        },
        {
            "mesh" : 0,
            "name" : "fumehoodfront_Plane.008",
            "rotation" : [
                0.7071068286895752,
                0.0,
                -0.0,
                0.7071067094802856
            ],
            "translation" : [
                5.90325927734375,
                8.146851539611816,
                -4.867564678192139
            ]
        },
        {
            "mesh" : 1,
            "name" : "fumehoodhousing_Plane",
            "rotation" : [
                0.7071068286895752,
                0.0,
                -0.0,
                0.7071067094802856
            ],
            "translation" : [
                5.893113136291504,
                6.465327739715576,
                -6.9603705406188965
            ]
        }
    ],
    "scene" : 0,
    "scenes" : [
        {
            "name" : "Scene",
            "nodes" : [
                0,
                1,
                2
            ]
        }
    ]
}
