{
    "accessors" : [
        {
            "bufferView" : 0,
            "componentType" : 5123,
            "count" : 2304,
            "max" : [
                484
            ],
            "min" : [
                0
            ],
            "type" : "SCALAR"
        },
        {
            "bufferView" : 1,
            "componentType" : 5126,
            "count" : 485,
            "max" : [
                1.446578860282898,
                3.8327889442443848,
                1.5732649564743042
            ],
            "min" : [
                0.8788459897041321,
                3.6890640258789062,
                1.0167640447616577
            ],
            "type" : "VEC3"
        },
        {
            "bufferView" : 2,
            "componentType" : 5126,
            "count" : 485,
            "max" : [
                0.9165623784065247,
                0.9439679980278015,
                0.9717093706130981
            ],
            "min" : [
                -0.9436017870903015,
                -0.9943845868110657,
                -0.9487594366073608
            ],
            "type" : "VEC3"
        },
        {
            "bufferView" : 3,
            "componentType" : 5126,
            "count" : 485,
            "max" : [
                0.961499810218811,
                0.544747531414032,
                0.998511016368866,
                1.0
            ],
            "min" : [
                -0.989096462726593,
                -0.4055323898792267,
                -0.9929624795913696,
                1.0
            ],
            "type" : "VEC4"
        },
        {
            "bufferView" : 4,
            "componentType" : 5126,
            "count" : 485,
            "max" : [
                1.7835958003997803,
                1.055117316544056
            ],
            "min" : [
                -0.7835957407951355,
                0.874462902545929
            ],
            "type" : "VEC2"
        },
        {
            "bufferView" : 5,
            "componentType" : 5123,
            "count" : 3456,
            "max" : [
                1031
            ],
            "min" : [
                0
            ],
            "type" : "SCALAR"
        },
        {
            "bufferView" : 6,
            "componentType" : 5126,
            "count" : 1032,
            "max" : [
                1.3479015827178955,
                3.9731361865997314,
                1.7493449449539185
            ],
            "min" : [
                0.695069432258606,
                3.6790547370910645,
                1.096737027168274
            ],
            "type" : "VEC3"
        },
        {
            "bufferView" : 7,
            "componentType" : 5126,
            "count" : 1032,
            "max" : [
                0.999725341796875,
                0.9972533583641052,
                0.99981689453125
            ],
            "min" : [
                -0.99981689453125,
                -0.9972533583641052,
                -0.99969482421875
            ],
            "type" : "VEC3"
        },
        {
            "bufferView" : 8,
            "componentType" : 5126,
            "count" : 1032,
            "max" : [
                0.9997754693031311,
                0.9972840547561646,
                0.9996762275695801,
                1.0
            ],
            "min" : [
                -0.9990659952163696,
                -0.9988536238670349,
                -0.9999585747718811,
                1.0
            ],
            "type" : "VEC4"
        },
        {
            "bufferView" : 9,
            "componentType" : 5126,
            "count" : 1032,
            "max" : [
                0.9957666397094727,
                1.0
            ],
            "min" : [
                0.0,
                0.0
            ],
            "type" : "VEC2"
        },
        {
            "bufferView" : 10,
            "componentType" : 5121,
            "count" : 768,
            "max" : [
                159
            ],
            "min" : [
                0
            ],
            "type" : "SCALAR"
        },
        {
            "bufferView" : 11,
            "componentType" : 5126,
            "count" : 160,
            "max" : [
                1.142185091972351,
                3.9698450565338135,
                1.7486708164215088
            ],
            "min" : [
                0.6957467794418335,
                3.69291090965271,
                1.3026394844055176
            ],
            "type" : "VEC3"
        },
        {
            "bufferView" : 12,
            "componentType" : 5126,
            "count" : 160,
            "max" : [
                -0.6486709117889404,
                0.0869777500629425,
                0.7578356266021729
            ],
            "min" : [
                -0.7571947574615479,
                -0.0027161473408341408,
                0.6493728160858154
            ],
            "type" : "VEC3"
        },
        {
            "bufferView" : 13,
            "componentType" : 5123,
            "count" : 912,
            "max" : [
                607
            ],
            "min" : [
                0
            ],
            "type" : "SCALAR"
        },
        {
            "bufferView" : 14,
            "componentType" : 5126,
            "count" : 608,
            "max" : [
                1.4200581312179565,
                3.8337223529815674,
                1.5566184520721436
            ],
            "min" : [
                0.9014387130737305,
                3.7658965587615967,
                1.0326738357543945
            ],
            "type" : "VEC3"
        },
        {
            "bufferView" : 15,
            "componentType" : 5126,
            "count" : 608,
            "max" : [
                0.8253389000892639,
                0.9677565097808838,
                0.8206776976585388
            ],
            "min" : [
                -0.8253389000892639,
                -0.9677563905715942,
                -0.8206780552864075
            ],
            "type" : "VEC3"
        }
    ],
    "asset" : {
        "generator" : "Khronos Blender glTF 2.0 exporter",
        "version" : "2.0"
    },
    "bufferViews" : [
        {
            "buffer" : 0,
            "byteLength" : 4608,
            "byteOffset" : 0,
            "target" : 34963
        },
        {
            "buffer" : 0,
            "byteLength" : 5820,
            "byteOffset" : 4608,
            "target" : 34962
        },
        {
            "buffer" : 0,
            "byteLength" : 5820,
            "byteOffset" : 10428,
            "target" : 34962
        },
        {
            "buffer" : 0,
            "byteLength" : 7760,
            "byteOffset" : 16248,
            "target" : 34962
        },
        {
            "buffer" : 0,
            "byteLength" : 3880,
            "byteOffset" : 24008,
            "target" : 34962
        },
        {
            "buffer" : 0,
            "byteLength" : 6912,
            "byteOffset" : 27888,
            "target" : 34963
        },
        {
            "buffer" : 0,
            "byteLength" : 12384,
            "byteOffset" : 34800,
            "target" : 34962
        },
        {
            "buffer" : 0,
            "byteLength" : 12384,
            "byteOffset" : 47184,
            "target" : 34962
        },
        {
            "buffer" : 0,
            "byteLength" : 16512,
            "byteOffset" : 59568,
            "target" : 34962
        },
        {
            "buffer" : 0,
            "byteLength" : 8256,
            "byteOffset" : 76080,
            "target" : 34962
        },
        {
            "buffer" : 0,
            "byteLength" : 768,
            "byteOffset" : 84336,
            "target" : 34963
        },
        {
            "buffer" : 0,
            "byteLength" : 1920,
            "byteOffset" : 85104,
            "target" : 34962
        },
        {
            "buffer" : 0,
            "byteLength" : 1920,
            "byteOffset" : 87024,
            "target" : 34962
        },
        {
            "buffer" : 0,
            "byteLength" : 1824,
            "byteOffset" : 88944,
            "target" : 34963
        },
        {
            "buffer" : 0,
            "byteLength" : 7296,
            "byteOffset" : 90768,
            "target" : 34962
        },
        {
            "buffer" : 0,
            "byteLength" : 7296,
            "byteOffset" : 98064,
            "target" : 34962
        }
    ],
    "buffers" : [
        {
            "byteLength" : 105360,
            "uri" : "data:application/octet-stream;base64,"
        }
    ],
    "materials" : [
        {
            "name" : "googles",
            "pbrMetallicRoughness" : {
                "metallicFactor" : 0.0,
                "roughnessFactor" : 0.7272727489471436
            }
        },
        {
            "name" : "Material.004",
            "pbrMetallicRoughness" : {
                "baseColorFactor" : [
                    0.22752368450164795,
                    0.22752368450164795,
                    0.22752368450164795,
                    1.0
                ]
            }
        },
        {
            "name" : "Material.006",
            "pbrMetallicRoughness" : {
                "baseColorFactor" : [
                    0.10677690804004669,
                    0.10677690804004669,
                    0.10677690804004669,
                    1.0
                ]
            }
        }
    ],
    "meshes" : [
        {
            "name" : "CUBezierCurve.003",
            "primitives" : [
                {
                    "attributes" : {
                        "NORMAL" : 2,
                        "POSITION" : 1,
                        "TANGENT" : 3,
                        "TEXCOORD_0" : 4
                    },
                    "indices" : 0,
                    "material" : 2
                }
            ]
        },
        {
            "name" : "CUPlane.007",
            "primitives" : [
                {
                    "attributes" : {
                        "NORMAL" : 7,
                        "POSITION" : 6,
                        "TANGENT" : 8,
                        "TEXCOORD_0" : 9
                    },
                    "indices" : 5,
                    "material" : 0
                }
            ]
        },
        {
            "name" : "Plane.010",
            "primitives" : [
                {
                    "attributes" : {
                        "NORMAL" : 12,
                        "POSITION" : 11
                    },
                    "indices" : 10,
                    "material" : 0
                }
            ]
        },
        {
            "name" : "Cube.085",
            "primitives" : [
                {
                    "attributes" : {
                        "NORMAL" : 15,
                        "POSITION" : 14
                    },
                    "indices" : 13,
                    "material" : 1
                }
            ]
        }
    ],
    "nodes" : [
        {
            "mesh" : 3,
            "name" : "goggleclips",
            "rotation" : [
                0.0,
                -2.244918141514063e-05,
                -0.0,
                1.0
            ],
            "translation" : [
                -2.7248215675354004,
                0.16574378311634064,
                -8.42126178741455
            ]
        },
        {
            "mesh" : 1,
            "name" : "gogglesframe",
            "rotation" : [
                0.0,
                -2.244918141514063e-05,
                -0.0,
                1.0
            ],
            "translation" : [
                -2.7248215675354004,
                0.16574378311634064,
                -8.42126178741455
            ]
        },
        {
            "mesh" : 2,
            "name" : "gogglesglass",
            "rotation" : [
                0.0,
                -2.244918141514063e-05,
                -0.0,
                1.0
            ],
            "translation" : [
                -2.7248215675354004,
                0.16574378311634064,
                -8.42126178741455
            ]
        },
        {
            "mesh" : 0,
            "name" : "gogglestrap",
            "rotation" : [
                0.0,
                -2.244918141514063e-05,
                -0.0,
                1.0
            ],
            "translation" : [
                -2.7248215675354004,
                0.16574378311634064,
                -8.42126178741455
            ]
        }
    ],
    "scene" : 0,
    "scenes" : [
        {
            "name" : "Scene",
            "nodes" : [
                0,
                1,
                2,
                3
            ]
        }
    ]
}
