{
    "accessors" : [
        {
            "bufferView" : 0,
            "componentType" : 5123,
            "count" : 1296,
            "max" : [
                306
            ],
            "min" : [
                0
            ],
            "type" : "SCALAR"
        },
        {
            "bufferView" : 1,
            "componentType" : 5126,
            "count" : 307,
            "max" : [
                -0.8316471576690674,
                6.004910945892334,
                1.2167127132415771
            ],
            "min" : [
                -1.732487440109253,
                5.965872287750244,
                0.23361441493034363
            ],
            "type" : "VEC3"
        },
        {
            "bufferView" : 2,
            "componentType" : 5126,
            "count" : 307,
            "max" : [
                1.0,
                1.0,
                1.0
            ],
            "min" : [
                -1.0,
                -1.0,
                -1.0
            ],
            "type" : "VEC3"
        },
        {
            "bufferView" : 3,
            "componentType" : 5126,
            "count" : 307,
            "max" : [
                0.9999958276748657,
                0.9977535605430603,
                0.9598544836044312,
                1.0
            ],
            "min" : [
                -1.0,
                -0.9978044629096985,
                -0.9960737824440002,
                -1.0
            ],
            "type" : "VEC4"
        },
        {
            "bufferView" : 4,
            "componentType" : 5126,
            "count" : 307,
            "max" : [
                0.9999155402183533,
                0.9999155736441026
            ],
            "min" : [
                8.442635589744896e-05,
                0.2870142459869385
            ],
            "type" : "VEC2"
        },
        {
            "bufferView" : 5,
            "componentType" : 5123,
            "count" : 3612,
            "max" : [
                2223
            ],
            "min" : [
                0
            ],
            "type" : "SCALAR"
        },
        {
            "bufferView" : 6,
            "componentType" : 5126,
            "count" : 2224,
            "max" : [
                0.09753537178039551,
                0.14667606353759766,
                0.4851207733154297
            ],
            "min" : [
                -0.09753537178039551,
                -0.14667606353759766,
                -0.4851207733154297
            ],
            "type" : "VEC3"
        },
        {
            "bufferView" : 7,
            "componentType" : 5126,
            "count" : 2224,
            "max" : [
                0.9897636771202087,
                0.9942445158958435,
                1.0
            ],
            "min" : [
                -0.8377225995063782,
                -0.837709903717041,
                -1.0
            ],
            "type" : "VEC3"
        },
        {
            "bufferView" : 8,
            "componentType" : 5126,
            "count" : 2224,
            "max" : [
                1.0018982887268066,
                0.9882305562496185
            ],
            "min" : [
                0.0020080036483705044,
                0.17139804363250732
            ],
            "type" : "VEC2"
        },
        {
            "bufferView" : 9,
            "componentType" : 5123,
            "count" : 1956,
            "max" : [
                573
            ],
            "min" : [
                0
            ],
            "type" : "SCALAR"
        },
        {
            "bufferView" : 10,
            "componentType" : 5126,
            "count" : 574,
            "max" : [
                -0.6204558610916138,
                5.95927095413208,
                1.2187392711639404
            ],
            "min" : [
                -1.836568832397461,
                5.606477737426758,
                0.23158785700798035
            ],
            "type" : "VEC3"
        },
        {
            "bufferView" : 11,
            "componentType" : 5126,
            "count" : 574,
            "max" : [
                0.9956053495407104,
                1.0,
                1.0
            ],
            "min" : [
                -0.9745780825614929,
                -0.999969482421875,
                -1.0
            ],
            "type" : "VEC3"
        },
        {
            "bufferView" : 12,
            "componentType" : 5126,
            "count" : 574,
            "max" : [
                0.999999463558197,
                0.9566189050674438,
                1.0,
                1.0
            ],
            "min" : [
                -1.0,
                -0.9999990463256836,
                -0.9999407529830933,
                -1.0
            ],
            "type" : "VEC4"
        },
        {
            "bufferView" : 13,
            "componentType" : 5126,
            "count" : 574,
            "max" : [
                0.9914092421531677,
                0.9991055418504402
            ],
            "min" : [
                0.002452904125675559,
                0.03747713565826416
            ],
            "type" : "VEC2"
        },
        {
            "bufferView" : 14,
            "componentType" : 5123,
            "count" : 574,
            "max" : [
                0,
                0,
                0,
                0
            ],
            "min" : [
                0,
                0,
                0,
                0
            ],
            "type" : "VEC4"
        },
        {
            "bufferView" : 15,
            "componentType" : 5126,
            "count" : 574,
            "max" : [
                0.0,
                0.0,
                0.0,
                0.0
            ],
            "min" : [
                0.0,
                0.0,
                0.0,
                0.0
            ],
            "type" : "VEC4"
        }
    ],
    "asset" : {
        "generator" : "Khronos Blender glTF 2.0 exporter",
        "version" : "2.0"
    },
    "bufferViews" : [
        {
            "buffer" : 0,
            "byteLength" : 2592,
            "byteOffset" : 0,
            "target" : 34963
        },
        {
            "buffer" : 0,
            "byteLength" : 3684,
            "byteOffset" : 2592,
            "target" : 34962
        },
        {
            "buffer" : 0,
            "byteLength" : 3684,
            "byteOffset" : 6276,
            "target" : 34962
        },
        {
            "buffer" : 0,
            "byteLength" : 4912,
            "byteOffset" : 9960,
            "target" : 34962
        },
        {
            "buffer" : 0,
            "byteLength" : 2456,
            "byteOffset" : 14872,
            "target" : 34962
        },
        {
            "buffer" : 0,
            "byteLength" : 7224,
            "byteOffset" : 17328,
            "target" : 34963
        },
        {
            "buffer" : 0,
            "byteLength" : 26688,
            "byteOffset" : 24552,
            "target" : 34962
        },
        {
            "buffer" : 0,
            "byteLength" : 26688,
            "byteOffset" : 51240,
            "target" : 34962
        },
        {
            "buffer" : 0,
            "byteLength" : 17792,
            "byteOffset" : 77928,
            "target" : 34962
        },
        {
            "buffer" : 0,
            "byteLength" : 3912,
            "byteOffset" : 95720,
            "target" : 34963
        },
        {
            "buffer" : 0,
            "byteLength" : 6888,
            "byteOffset" : 99632,
            "target" : 34962
        },
        {
            "buffer" : 0,
            "byteLength" : 6888,
            "byteOffset" : 106520,
            "target" : 34962
        },
        {
            "buffer" : 0,
            "byteLength" : 9184,
            "byteOffset" : 113408,
            "target" : 34962
        },
        {
            "buffer" : 0,
            "byteLength" : 4592,
            "byteOffset" : 122592,
            "target" : 34962
        },
        {
            "buffer" : 0,
            "byteLength" : 4592,
            "byteOffset" : 127184,
            "target" : 34962
        },
        {
            "buffer" : 0,
            "byteLength" : 9184,
            "byteOffset" : 131776,
            "target" : 34962
        }
    ],
    "buffers" : [
        {
            "byteLength" : 140960,
            "uri" : "data:application/octet-stream;base64,"
        }
    ],
    "images" : [
        {
            "mimeType" : "image/jpeg",
            "name" : "scalepanelPROPORTIONAL",
            "uri" : "data:image/jpeg;base64,"
        }
    ],
    "materials" : [
        {
            "name" : "Material.001",
            "pbrMetallicRoughness" : {
                "metallicFactor" : 0.0,
                "roughnessFactor" : 0.5643160343170166
            }
        },
        {
            "name" : "scalecontrolpanel",
            "pbrMetallicRoughness" : {
                "baseColorTexture" : {
                    "index" : 0
                }
            }
        },
        {
            "name" : "scaleplate",
            "pbrMetallicRoughness" : {
                "roughnessFactor" : 0.4363636374473572
            }
        }
    ],
    "meshes" : [
        {
            "name" : "Cube.089",
            "primitives" : [
                {
                    "attributes" : {
                        "NORMAL" : 2,
                        "POSITION" : 1,
                        "TANGENT" : 3,
                        "TEXCOORD_0" : 4
                    },
                    "indices" : 0,
                    "material" : 2
                }
            ]
        },
        {
            "name" : "Plane.020",
            "primitives" : [
                {
                    "attributes" : {
                        "NORMAL" : 7,
                        "POSITION" : 6,
                        "TEXCOORD_0" : 8
                    },
                    "indices" : 5,
                    "material" : 1
                }
            ]
        },
        {
            "name" : "Cube.088",
            "primitives" : [
                {
                    "attributes" : {
                        "JOINTS_0" : 14,
                        "NORMAL" : 11,
                        "POSITION" : 10,
                        "TANGENT" : 12,
                        "TEXCOORD_0" : 13,
                        "WEIGHTS_0" : 15
                    },
                    "indices" : 9,
                    "material" : 0
                }
            ]
        }
    ],
    "nodes" : [
        {
            "mesh" : 2,
            "name" : "scalebody",
            "rotation" : [
                0.0,
                -2.244918141514063e-05,
                -0.0,
                1.0
            ],
            "translation" : [
                -2.7248215675354004,
                0.16574378311634064,
                -8.42126178741455
            ]
        },
        {
            "mesh" : 1,
            "name" : "scalecontrolpanel",
            "rotation" : [
                0.0,
                -2.244918141514063e-05,
                -0.0,
                1.0
            ],
            "translation" : [
                -3.440807342529297,
                5.935444355010986,
                -7.693051338195801
            ]
        },
        {
            "mesh" : 0,
            "name" : "scaleplate",
            "rotation" : [
                0.0,
                -2.244918141514063e-05,
                -0.0,
                1.0
            ],
            "translation" : [
                -2.7248215675354004,
                0.16574378311634064,
                -8.42126178741455
            ]
        }
    ],
    "samplers" : [
        {}
    ],
    "scene" : 0,
    "scenes" : [
        {
            "name" : "Scene",
            "nodes" : [
                0,
                1,
                2
            ]
        }
    ],
    "textures" : [
        {
            "sampler" : 0,
            "source" : 0
        }
    ]
}
