{
    "accessors" : [
        {
            "bufferView" : 0,
            "componentType" : 5123,
            "count" : 6912,
            "max" : [
                1297
            ],
            "min" : [
                0
            ],
            "type" : "SCALAR"
        },
        {
            "bufferView" : 1,
            "componentType" : 5126,
            "count" : 1298,
            "max" : [
                1.0000001192092896,
                2.1355793476104736,
                1.0000003576278687
            ],
            "min" : [
                -0.9999998807907104,
                -2.08272647857666,
                -0.9999997019767761
            ],
            "type" : "VEC3"
        },
        {
            "bufferView" : 2,
            "componentType" : 5126,
            "count" : 1298,
            "max" : [
                1.0,
                1.0,
                1.0
            ],
            "min" : [
                -1.0,
                -1.0,
                -1.0
            ],
            "type" : "VEC3"
        },
        {
            "bufferView" : 3,
            "componentType" : 5126,
            "count" : 1298,
            "max" : [
                0.9999980926513672,
                0.4337405860424042,
                0.9999964237213135,
                1.0
            ],
            "min" : [
                -1.0,
                -0.38988038897514343,
                -0.9999968409538269,
                1.0
            ],
            "type" : "VEC4"
        },
        {
            "bufferView" : 4,
            "componentType" : 5126,
            "count" : 1298,
            "max" : [
                0.9634988903999329,
                0.9476538598537445
            ],
            "min" : [
                0.023426292464137077,
                0.13474810123443604
            ],
            "type" : "VEC2"
        },
        {
            "bufferView" : 5,
            "componentType" : 5123,
            "count" : 960,
            "max" : [
                703
            ],
            "min" : [
                0
            ],
            "type" : "SCALAR"
        },
        {
            "bufferView" : 6,
            "componentType" : 5126,
            "count" : 704,
            "max" : [
                1.0,
                -0.09192132949829102,
                1.0
            ],
            "min" : [
                -1.0,
                -1.0,
                -1.0
            ],
            "type" : "VEC3"
        },
        {
            "bufferView" : 7,
            "componentType" : 5126,
            "count" : 704,
            "max" : [
                0.9951847791671753,
                1.0,
                0.9951848387718201
            ],
            "min" : [
                -0.9951848387718201,
                -1.0,
                -0.9951847791671753
            ],
            "type" : "VEC3"
        },
        {
            "bufferView" : 8,
            "componentType" : 5126,
            "count" : 704,
            "max" : [
                0.9994133710861206,
                0.9280604124069214,
                0.9999951720237732,
                1.0
            ],
            "min" : [
                -0.7195332050323486,
                -0.8709495663642883,
                -0.9997472763061523,
                1.0
            ],
            "type" : "VEC4"
        },
        {
            "bufferView" : 9,
            "componentType" : 5126,
            "count" : 704,
            "max" : [
                0.9998999834060669,
                0.999900030597928
            ],
            "min" : [
                9.996940207201988e-05,
                0.49917691946029663
            ],
            "type" : "VEC2"
        },
        {
            "bufferView" : 10,
            "componentType" : 5123,
            "count" : 1632,
            "max" : [
                305
            ],
            "min" : [
                0
            ],
            "type" : "SCALAR"
        },
        {
            "bufferView" : 11,
            "componentType" : 5126,
            "count" : 306,
            "max" : [
                1.0000001192092896,
                0.9548981189727783,
                -5.1339898109436035
            ],
            "min" : [
                -0.9999998807907104,
                -1.427168846130371,
                -6.13399076461792
            ],
            "type" : "VEC3"
        },
        {
            "bufferView" : 12,
            "componentType" : 5126,
            "count" : 306,
            "max" : [
                0.9951475858688354,
                -0.008453627116978168,
                0.99993896484375
            ],
            "min" : [
                -0.9951475858688354,
                -0.008514664135873318,
                0.09799493104219437
            ],
            "type" : "VEC3"
        },
        {
            "bufferView" : 13,
            "componentType" : 5126,
            "count" : 306,
            "max" : [
                1.0,
                0.012518582865595818,
                0.9950978755950928,
                1.0
            ],
            "min" : [
                0.09809638559818268,
                -0.012544001452624798,
                -0.9950982332229614,
                1.0
            ],
            "type" : "VEC4"
        },
        {
            "bufferView" : 14,
            "componentType" : 5126,
            "count" : 306,
            "max" : [
                0.9999126195907593,
                0.9999126777183847
            ],
            "min" : [
                8.732228161534294e-05,
                0.23726147413253784
            ],
            "type" : "VEC2"
        }
    ],
    "asset" : {
        "generator" : "Khronos Blender glTF 2.0 exporter",
        "version" : "2.0"
    },
    "bufferViews" : [
        {
            "buffer" : 0,
            "byteLength" : 13824,
            "byteOffset" : 0,
            "target" : 34963
        },
        {
            "buffer" : 0,
            "byteLength" : 15576,
            "byteOffset" : 13824,
            "target" : 34962
        },
        {
            "buffer" : 0,
            "byteLength" : 15576,
            "byteOffset" : 29400,
            "target" : 34962
        },
        {
            "buffer" : 0,
            "byteLength" : 20768,
            "byteOffset" : 44976,
            "target" : 34962
        },
        {
            "buffer" : 0,
            "byteLength" : 10384,
            "byteOffset" : 65744,
            "target" : 34962
        },
        {
            "buffer" : 0,
            "byteLength" : 1920,
            "byteOffset" : 76128,
            "target" : 34963
        },
        {
            "buffer" : 0,
            "byteLength" : 8448,
            "byteOffset" : 78048,
            "target" : 34962
        },
        {
            "buffer" : 0,
            "byteLength" : 8448,
            "byteOffset" : 86496,
            "target" : 34962
        },
        {
            "buffer" : 0,
            "byteLength" : 11264,
            "byteOffset" : 94944,
            "target" : 34962
        },
        {
            "buffer" : 0,
            "byteLength" : 5632,
            "byteOffset" : 106208,
            "target" : 34962
        },
        {
            "buffer" : 0,
            "byteLength" : 3264,
            "byteOffset" : 111840,
            "target" : 34963
        },
        {
            "buffer" : 0,
            "byteLength" : 3672,
            "byteOffset" : 115104,
            "target" : 34962
        },
        {
            "buffer" : 0,
            "byteLength" : 3672,
            "byteOffset" : 118776,
            "target" : 34962
        },
        {
            "buffer" : 0,
            "byteLength" : 4896,
            "byteOffset" : 122448,
            "target" : 34962
        },
        {
            "buffer" : 0,
            "byteLength" : 2448,
            "byteOffset" : 127344,
            "target" : 34962
        }
    ],
    "buffers" : [
        {
            "byteLength" : 129792,
            "uri" : "data:application/octet-stream;base64,"
        }
    ],
    "extensionsRequired" : [
        "KHR_materials_pbrSpecularGlossiness"
    ],
    "extensionsUsed" : [
        "KHR_materials_pbrSpecularGlossiness"
    ],
    "images" : [
        {
            "mimeType" : "image/png",
            "name" : "labeltex",
            "uri" : "data:image/png;base64,"
        }
    ],
    "materials" : [
        {
            "extensions" : {
                "KHR_materials_pbrSpecularGlossiness" : {
                    "diffuseFactor" : [
                        0.0143861910328269,
                        0.004410959780216217,
                        0.003122844034805894,
                        1.0
                    ],
                    "specularFactor" : [
                        0.42662742733955383,
                        0.42662742733955383,
                        0.42662742733955383
                    ]
                }
            },
            "name" : "bottle"
        },
        {
            "name" : "cap",
            "pbrMetallicRoughness" : {
                "baseColorFactor" : [
                    0.7484185099601746,
                    0.12866242229938507,
                    0.09827908128499985,
                    1.0
                ]
            }
        },
        {
            "name" : "label",
            "pbrMetallicRoughness" : {
                "baseColorFactor" : [
                    0.30555209517478943,
                    0.30555209517478943,
                    0.30555209517478943,
                    1.0
                ],
                "baseColorTexture" : {
                    "index" : 0
                },
                "metallicFactor" : 0.8727272748947144,
                "roughnessFactor" : 0.7636363506317139
            }
        }
    ],
    "meshes" : [
        {
            "name" : "Cylinder.007",
            "primitives" : [
                {
                    "attributes" : {
                        "NORMAL" : 2,
                        "POSITION" : 1,
                        "TANGENT" : 3,
                        "TEXCOORD_0" : 4
                    },
                    "indices" : 0,
                    "material" : 0
                }
            ]
        },
        {
            "name" : "Cylinder.001",
            "primitives" : [
                {
                    "attributes" : {
                        "NORMAL" : 7,
                        "POSITION" : 6,
                        "TANGENT" : 8,
                        "TEXCOORD_0" : 9
                    },
                    "indices" : 5,
                    "material" : 1
                }
            ]
        },
        {
            "name" : "Cylinder.002",
            "primitives" : [
                {
                    "attributes" : {
                        "NORMAL" : 12,
                        "POSITION" : 11,
                        "TANGENT" : 13,
                        "TEXCOORD_0" : 14
                    },
                    "indices" : 10,
                    "material" : 2
                }
            ]
        }
    ],
    "nodes" : [
        {
            "mesh" : 0,
            "name" : "bottle",
            "scale" : [
                1.2534923553466797,
                1.2534923553466797,
                1.2534923553466797
            ],
            "translation" : [
                2.9802322387695312e-08,
                0.0,
                -0.0
            ]
        },
        {
            "mesh" : 2,
            "name" : "bottle.001",
            "scale" : [
                1.2534923553466797,
                1.2534923553466797,
                1.2534923553466797
            ],
            "translation" : [
                2.9802322387695312e-08,
                0.0,
                7.69378662109375
            ]
        },
        {
            "mesh" : 1,
            "name" : "cap",
            "scale" : [
                1.172363519668579,
                1.172363519668579,
                1.172363519668579
            ],
            "translation" : [
                0.0,
                3.2188639640808105,
                -0.0
            ]
        }
    ],
    "samplers" : [
        {}
    ],
    "scene" : 0,
    "scenes" : [
        {
            "name" : "Scene",
            "nodes" : [
                1,
                2,
                0
            ]
        }
    ],
    "textures" : [
        {
            "sampler" : 0,
            "source" : 0
        }
    ]
}
