{
    "accessors" : [
        {
            "bufferView" : 0,
            "componentType" : 5121,
            "count" : 60,
            "max" : [
                21
            ],
            "min" : [
                0
            ],
            "type" : "SCALAR"
        },
        {
            "bufferView" : 1,
            "componentType" : 5126,
            "count" : 22,
            "max" : [
                1.0,
                0.25022974610328674,
                0.8314696550369263
            ],
            "min" : [
                0.5555701851844788,
                -0.6449556946754456,
                -0.8314695954322815
            ],
            "type" : "VEC3"
        },
        {
            "bufferView" : 2,
            "componentType" : 5126,
            "count" : 22,
            "max" : [
                1.0,
                0.0,
                0.773003339767456
            ],
            "min" : [
                0.634388267993927,
                0.0,
                -0.773003339767456
            ],
            "type" : "VEC3"
        },
        {
            "bufferView" : 3,
            "componentType" : 5126,
            "count" : 22,
            "max" : [
                0.7730100750923157,
                1.1008734190909308e-06,
                -0.6343938112258911,
                1.0
            ],
            "min" : [
                -0.7730100750923157,
                -3.5846272794515244e-07,
                -1.0,
                1.0
            ],
            "type" : "VEC4"
        },
        {
            "bufferView" : 4,
            "componentType" : 5126,
            "count" : 22,
            "max" : [
                0.9999324679374695,
                0.9999324334421544
            ],
            "min" : [
                6.756655784556642e-05,
                0.5433468818664551
            ],
            "type" : "VEC2"
        },
        {
            "bufferView" : 5,
            "componentType" : 5121,
            "count" : 60,
            "max" : [
                21
            ],
            "min" : [
                0
            ],
            "type" : "SCALAR"
        },
        {
            "bufferView" : 6,
            "componentType" : 5126,
            "count" : 22,
            "max" : [
                1.0,
                0.25022974610328674,
                0.8314696550369263
            ],
            "min" : [
                0.5555701851844788,
                -0.6449556946754456,
                -0.8314695954322815
            ],
            "type" : "VEC3"
        },
        {
            "bufferView" : 7,
            "componentType" : 5126,
            "count" : 22,
            "max" : [
                1.0,
                0.0,
                0.773003339767456
            ],
            "min" : [
                0.634388267993927,
                0.0,
                -0.773003339767456
            ],
            "type" : "VEC3"
        },
        {
            "bufferView" : 8,
            "componentType" : 5126,
            "count" : 22,
            "max" : [
                0.7730100750923157,
                1.1008734190909308e-06,
                -0.6343938112258911,
                1.0
            ],
            "min" : [
                -0.7730100750923157,
                -3.5846272794515244e-07,
                -1.0,
                1.0
            ],
            "type" : "VEC4"
        },
        {
            "bufferView" : 9,
            "componentType" : 5126,
            "count" : 22,
            "max" : [
                0.9999324679374695,
                0.9999324334421544
            ],
            "min" : [
                6.756655784556642e-05,
                0.5433468818664551
            ],
            "type" : "VEC2"
        },
        {
            "bufferView" : 10,
            "componentType" : 5121,
            "count" : 60,
            "max" : [
                21
            ],
            "min" : [
                0
            ],
            "type" : "SCALAR"
        },
        {
            "bufferView" : 11,
            "componentType" : 5126,
            "count" : 22,
            "max" : [
                1.0,
                0.25022974610328674,
                0.8314696550369263
            ],
            "min" : [
                0.5555701851844788,
                -0.6449556946754456,
                -0.8314695954322815
            ],
            "type" : "VEC3"
        },
        {
            "bufferView" : 12,
            "componentType" : 5126,
            "count" : 22,
            "max" : [
                1.0,
                0.0,
                0.773003339767456
            ],
            "min" : [
                0.634388267993927,
                0.0,
                -0.773003339767456
            ],
            "type" : "VEC3"
        },
        {
            "bufferView" : 13,
            "componentType" : 5126,
            "count" : 22,
            "max" : [
                0.7730100750923157,
                1.1008734190909308e-06,
                -0.6343938112258911,
                1.0
            ],
            "min" : [
                -0.7730100750923157,
                -3.5846272794515244e-07,
                -1.0,
                1.0
            ],
            "type" : "VEC4"
        },
        {
            "bufferView" : 14,
            "componentType" : 5126,
            "count" : 22,
            "max" : [
                0.9999324679374695,
                0.9999324334421544
            ],
            "min" : [
                6.756655784556642e-05,
                0.5433468818664551
            ],
            "type" : "VEC2"
        },
        {
            "bufferView" : 15,
            "componentType" : 5123,
            "count" : 3828,
            "max" : [
                709
            ],
            "min" : [
                0
            ],
            "type" : "SCALAR"
        },
        {
            "bufferView" : 16,
            "componentType" : 5126,
            "count" : 710,
            "max" : [
                1.061665415763855,
                1.0459232330322266,
                1.0616652965545654
            ],
            "min" : [
                -1.0616652965545654,
                -1.0,
                -1.0616651773452759
            ],
            "type" : "VEC3"
        },
        {
            "bufferView" : 17,
            "componentType" : 5126,
            "count" : 710,
            "max" : [
                1.0,
                0.9975890517234802,
                1.0
            ],
            "min" : [
                -1.0,
                -0.9980162978172302,
                -1.0
            ],
            "type" : "VEC3"
        },
        {
            "bufferView" : 18,
            "componentType" : 5126,
            "count" : 710,
            "max" : [
                0.9998708367347717,
                0.99987089264323
            ],
            "min" : [
                0.0001291073567699641,
                0.15536677837371826
            ],
            "type" : "VEC2"
        },
        {
            "bufferView" : 19,
            "componentType" : 5123,
            "count" : 858,
            "max" : [
                479
            ],
            "min" : [
                0
            ],
            "type" : "SCALAR"
        },
        {
            "bufferView" : 20,
            "componentType" : 5126,
            "count" : 480,
            "max" : [
                1.0616652965545654,
                1.125556230545044,
                1.0616652965545654
            ],
            "min" : [
                -1.0616652965545654,
                0.7734978795051575,
                -1.0616651773452759
            ],
            "type" : "VEC3"
        },
        {
            "bufferView" : 21,
            "componentType" : 5126,
            "count" : 480,
            "max" : [
                0.9951847791671753,
                1.0,
                0.9951848387718201
            ],
            "min" : [
                -0.9951847791671753,
                0.0,
                -0.9951848387718201
            ],
            "type" : "VEC3"
        }
    ],
    "asset" : {
        "generator" : "Khronos Blender glTF 2.0 exporter",
        "version" : "2.0"
    },
    "bufferViews" : [
        {
            "buffer" : 0,
            "byteLength" : 60,
            "byteOffset" : 0,
            "target" : 34963
        },
        {
            "buffer" : 0,
            "byteLength" : 264,
            "byteOffset" : 60,
            "target" : 34962
        },
        {
            "buffer" : 0,
            "byteLength" : 264,
            "byteOffset" : 324,
            "target" : 34962
        },
        {
            "buffer" : 0,
            "byteLength" : 352,
            "byteOffset" : 588,
            "target" : 34962
        },
        {
            "buffer" : 0,
            "byteLength" : 176,
            "byteOffset" : 940,
            "target" : 34962
        },
        {
            "buffer" : 0,
            "byteLength" : 60,
            "byteOffset" : 1116,
            "target" : 34963
        },
        {
            "buffer" : 0,
            "byteLength" : 264,
            "byteOffset" : 1176,
            "target" : 34962
        },
        {
            "buffer" : 0,
            "byteLength" : 264,
            "byteOffset" : 1440,
            "target" : 34962
        },
        {
            "buffer" : 0,
            "byteLength" : 352,
            "byteOffset" : 1704,
            "target" : 34962
        },
        {
            "buffer" : 0,
            "byteLength" : 176,
            "byteOffset" : 2056,
            "target" : 34962
        },
        {
            "buffer" : 0,
            "byteLength" : 60,
            "byteOffset" : 2232,
            "target" : 34963
        },
        {
            "buffer" : 0,
            "byteLength" : 264,
            "byteOffset" : 2292,
            "target" : 34962
        },
        {
            "buffer" : 0,
            "byteLength" : 264,
            "byteOffset" : 2556,
            "target" : 34962
        },
        {
            "buffer" : 0,
            "byteLength" : 352,
            "byteOffset" : 2820,
            "target" : 34962
        },
        {
            "buffer" : 0,
            "byteLength" : 176,
            "byteOffset" : 3172,
            "target" : 34962
        },
        {
            "buffer" : 0,
            "byteLength" : 7656,
            "byteOffset" : 3348,
            "target" : 34963
        },
        {
            "buffer" : 0,
            "byteLength" : 8520,
            "byteOffset" : 11004,
            "target" : 34962
        },
        {
            "buffer" : 0,
            "byteLength" : 8520,
            "byteOffset" : 19524,
            "target" : 34962
        },
        {
            "buffer" : 0,
            "byteLength" : 5680,
            "byteOffset" : 28044,
            "target" : 34962
        },
        {
            "buffer" : 0,
            "byteLength" : 1716,
            "byteOffset" : 33724,
            "target" : 34963
        },
        {
            "buffer" : 0,
            "byteLength" : 5760,
            "byteOffset" : 35440,
            "target" : 34962
        },
        {
            "buffer" : 0,
            "byteLength" : 5760,
            "byteOffset" : 41200,
            "target" : 34962
        }
    ],
    "buffers" : [
        {
            "byteLength" : 46960,
            "uri" : "data:application/octet-stream;base64,"
        }
    ],
    "images" : [
        {
            "mimeType" : "image/jpeg",
            "name" : "copperstrips",
            "uri" : "data:image/jpeg;base64,"
        },
        {
            "mimeType" : "image/jpeg",
            "name" : "CuOH2",
            "uri" : "data:image/jpeg;base64,"
        },
        {
            "mimeType" : "image/jpeg",
            "name" : "magnesiumstrips",
            "uri" : "data:image/jpeg;base64,"
        }
    ],
    "materials" : [
        {
            "name" : "copperstrips",
            "pbrMetallicRoughness" : {
                "baseColorTexture" : {
                    "index" : 0
                }
            }
        },
        {
            "name" : "CuOH2",
            "pbrMetallicRoughness" : {
                "baseColorTexture" : {
                    "index" : 1
                }
            }
        },
        {
            "name" : "lid",
            "pbrMetallicRoughness" : {}
        },
        {
            "name" : "magstrips",
            "pbrMetallicRoughness" : {
                "baseColorTexture" : {
                    "index" : 2
                }
            }
        },
        {
            "name" : "Material.003",
            "pbrMetallicRoughness" : {
                "roughnessFactor" : 0.3636363744735718
            }
        }
    ],
    "meshes" : [
        {
            "name" : "Cylinder.005",
            "primitives" : [
                {
                    "attributes" : {
                        "NORMAL" : 2,
                        "POSITION" : 1,
                        "TANGENT" : 3,
                        "TEXCOORD_0" : 4
                    },
                    "indices" : 0,
                    "material" : 0
                }
            ]
        },
        {
            "name" : "Cylinder.006",
            "primitives" : [
                {
                    "attributes" : {
                        "NORMAL" : 7,
                        "POSITION" : 6,
                        "TANGENT" : 8,
                        "TEXCOORD_0" : 9
                    },
                    "indices" : 5,
                    "material" : 1
                }
            ]
        },
        {
            "name" : "Cylinder.004",
            "primitives" : [
                {
                    "attributes" : {
                        "NORMAL" : 12,
                        "POSITION" : 11,
                        "TANGENT" : 13,
                        "TEXCOORD_0" : 14
                    },
                    "indices" : 10,
                    "material" : 3
                }
            ]
        },
        {
            "name" : "Cylinder",
            "primitives" : [
                {
                    "attributes" : {
                        "NORMAL" : 17,
                        "POSITION" : 16,
                        "TEXCOORD_0" : 18
                    },
                    "indices" : 15,
                    "material" : 4
                }
            ]
        },
        {
            "name" : "Cylinder.001",
            "primitives" : [
                {
                    "attributes" : {
                        "NORMAL" : 21,
                        "POSITION" : 20
                    },
                    "indices" : 19,
                    "material" : 2
                }
            ]
        }
    ],
    "nodes" : [
        {
            "mesh" : 0,
            "name" : "copperstrips",
            "scale" : [
                0.050663530826568604,
                0.050663530826568604,
                0.050663530826568604
            ],
            "translation" : [
                0.0981048047542572,
                0.056027110666036606,
                -0.0
            ]
        },
        {
            "mesh" : 1,
            "name" : "CuOH2",
            "scale" : [
                0.050663530826568604,
                0.050663530826568604,
                0.050663530826568604
            ],
            "translation" : [
                0.0981048047542572,
                0.056027110666036606,
                -0.0
            ]
        },
        {
            "mesh" : 4,
            "name" : "lid",
            "scale" : [
                0.05225277692079544,
                0.05225277692079544,
                0.05225277692079544
            ],
            "translation" : [
                0.0977475643157959,
                0.05700497329235077,
                -9.508861694484949e-05
            ]
        },
        {
            "mesh" : 2,
            "name" : "magstrips",
            "scale" : [
                0.050663530826568604,
                0.050663530826568604,
                0.050663530826568604
            ],
            "translation" : [
                0.0981048047542572,
                0.056027110666036606,
                -0.0
            ]
        },
        {
            "mesh" : 3,
            "name" : "plasticbottle",
            "scale" : [
                0.050663530826568604,
                0.050663530826568604,
                0.050663530826568604
            ],
            "translation" : [
                0.0977475643157959,
                0.056027110666036606,
                -0.0
            ]
        }
    ],
    "samplers" : [
        {}
    ],
    "scene" : 0,
    "scenes" : [
        {
            "name" : "Scene",
            "nodes" : [
                3,
                2,
                4,
                0,
                1
            ]
        }
    ],
    "textures" : [
        {
            "sampler" : 0,
            "source" : 0
        },
        {
            "sampler" : 0,
            "source" : 1
        },
        {
            "sampler" : 0,
            "source" : 2
        }
    ]
}
