{
    "accessors" : [
        {
            "bufferView" : 0,
            "componentType" : 5123,
            "count" : 960,
            "max" : [
                703
            ],
            "min" : [
                0
            ],
            "type" : "SCALAR"
        },
        {
            "bufferView" : 1,
            "componentType" : 5126,
            "count" : 704,
            "max" : [
                0.9352777004241943,
                4.564674377441406,
                0.93527752161026
            ],
            "min" : [
                -0.9352778196334839,
                3.7153701782226562,
                -0.9352784156799316
            ],
            "type" : "VEC3"
        },
        {
            "bufferView" : 2,
            "componentType" : 5126,
            "count" : 704,
            "max" : [
                0.9951848387718201,
                1.0,
                0.9951848983764648
            ],
            "min" : [
                -0.9951847791671753,
                -1.0,
                -0.9951847791671753
            ],
            "type" : "VEC3"
        },
        {
            "bufferView" : 3,
            "componentType" : 5126,
            "count" : 704,
            "max" : [
                0.9993383884429932,
                0.9280596971511841,
                0.9999951720237732,
                1.0
            ],
            "min" : [
                -0.6962572336196899,
                -0.8709497451782227,
                -0.9998707175254822,
                1.0
            ],
            "type" : "VEC4"
        },
        {
            "bufferView" : 4,
            "componentType" : 5126,
            "count" : 704,
            "max" : [
                0.9998999834060669,
                0.999900030597928
            ],
            "min" : [
                9.996940207201988e-05,
                0.49917691946029663
            ],
            "type" : "VEC2"
        },
        {
            "bufferView" : 5,
            "componentType" : 5123,
            "count" : 1632,
            "max" : [
                305
            ],
            "min" : [
                0
            ],
            "type" : "SCALAR"
        },
        {
            "bufferView" : 6,
            "componentType" : 5126,
            "count" : 306,
            "max" : [
                1.0000038146972656,
                1.1910285949707031,
                0.40881821513175964
            ],
            "min" : [
                -0.9999966621398926,
                -1.1910438537597656,
                -0.5911828279495239
            ],
            "type" : "VEC3"
        },
        {
            "bufferView" : 7,
            "componentType" : 5126,
            "count" : 306,
            "max" : [
                0.9951475858688354,
                -0.008453627116978168,
                0.99993896484375
            ],
            "min" : [
                -0.9951475858688354,
                -0.008514664135873318,
                0.09799493104219437
            ],
            "type" : "VEC3"
        },
        {
            "bufferView" : 8,
            "componentType" : 5126,
            "count" : 306,
            "max" : [
                1.0,
                0.012518549337983131,
                0.9950979351997375,
                1.0
            ],
            "min" : [
                0.09809638559818268,
                -0.012544005177915096,
                -0.9950982332229614,
                1.0
            ],
            "type" : "VEC4"
        },
        {
            "bufferView" : 9,
            "componentType" : 5126,
            "count" : 306,
            "max" : [
                0.9999126195907593,
                0.9999126777183847
            ],
            "min" : [
                8.732228161534294e-05,
                0.23726147413253784
            ],
            "type" : "VEC2"
        },
        {
            "bufferView" : 10,
            "componentType" : 5123,
            "count" : 6912,
            "max" : [
                1297
            ],
            "min" : [
                0
            ],
            "type" : "SCALAR"
        },
        {
            "bufferView" : 11,
            "componentType" : 5126,
            "count" : 1298,
            "max" : [
                1.000000238418579,
                4.2183074951171875,
                1.0
            ],
            "min" : [
                -0.9999999403953552,
                0.0,
                -1.0
            ],
            "type" : "VEC3"
        },
        {
            "bufferView" : 12,
            "componentType" : 5126,
            "count" : 1298,
            "max" : [
                1.0,
                1.0,
                1.0
            ],
            "min" : [
                -1.0,
                -1.0,
                -1.0
            ],
            "type" : "VEC3"
        },
        {
            "bufferView" : 13,
            "componentType" : 5126,
            "count" : 1298,
            "max" : [
                0.9999980926513672,
                0.4337390661239624,
                0.9999964237213135,
                1.0
            ],
            "min" : [
                -1.0,
                -0.38987866044044495,
                -0.9999968409538269,
                1.0
            ],
            "type" : "VEC4"
        },
        {
            "bufferView" : 14,
            "componentType" : 5126,
            "count" : 1298,
            "max" : [
                0.9634988903999329,
                0.9476538598537445
            ],
            "min" : [
                0.023426292464137077,
                0.13474810123443604
            ],
            "type" : "VEC2"
        },
        {
            "bufferView" : 15,
            "componentType" : 5123,
            "count" : 1632,
            "max" : [
                305
            ],
            "min" : [
                0
            ],
            "type" : "SCALAR"
        },
        {
            "bufferView" : 16,
            "componentType" : 5126,
            "count" : 306,
            "max" : [
                1.0000038146972656,
                1.1910285949707031,
                0.40881821513175964
            ],
            "min" : [
                -0.9999966621398926,
                -1.1910438537597656,
                -0.5911828279495239
            ],
            "type" : "VEC3"
        },
        {
            "bufferView" : 17,
            "componentType" : 5126,
            "count" : 306,
            "max" : [
                0.9951475858688354,
                -0.008453627116978168,
                0.99993896484375
            ],
            "min" : [
                -0.9951475858688354,
                -0.008514664135873318,
                0.09799493104219437
            ],
            "type" : "VEC3"
        },
        {
            "bufferView" : 18,
            "componentType" : 5126,
            "count" : 306,
            "max" : [
                1.0,
                0.012518549337983131,
                0.9950979351997375,
                1.0
            ],
            "min" : [
                0.09809638559818268,
                -0.012544005177915096,
                -0.9950982332229614,
                1.0
            ],
            "type" : "VEC4"
        },
        {
            "bufferView" : 19,
            "componentType" : 5126,
            "count" : 306,
            "max" : [
                0.9999126195907593,
                0.9999126777183847
            ],
            "min" : [
                8.732228161534294e-05,
                0.23726147413253784
            ],
            "type" : "VEC2"
        }
    ],
    "asset" : {
        "generator" : "Khronos Blender glTF 2.0 exporter",
        "version" : "2.0"
    },
    "bufferViews" : [
        {
            "buffer" : 0,
            "byteLength" : 1920,
            "byteOffset" : 0,
            "target" : 34963
        },
        {
            "buffer" : 0,
            "byteLength" : 8448,
            "byteOffset" : 1920,
            "target" : 34962
        },
        {
            "buffer" : 0,
            "byteLength" : 8448,
            "byteOffset" : 10368,
            "target" : 34962
        },
        {
            "buffer" : 0,
            "byteLength" : 11264,
            "byteOffset" : 18816,
            "target" : 34962
        },
        {
            "buffer" : 0,
            "byteLength" : 5632,
            "byteOffset" : 30080,
            "target" : 34962
        },
        {
            "buffer" : 0,
            "byteLength" : 3264,
            "byteOffset" : 35712,
            "target" : 34963
        },
        {
            "buffer" : 0,
            "byteLength" : 3672,
            "byteOffset" : 38976,
            "target" : 34962
        },
        {
            "buffer" : 0,
            "byteLength" : 3672,
            "byteOffset" : 42648,
            "target" : 34962
        },
        {
            "buffer" : 0,
            "byteLength" : 4896,
            "byteOffset" : 46320,
            "target" : 34962
        },
        {
            "buffer" : 0,
            "byteLength" : 2448,
            "byteOffset" : 51216,
            "target" : 34962
        },
        {
            "buffer" : 0,
            "byteLength" : 13824,
            "byteOffset" : 53664,
            "target" : 34963
        },
        {
            "buffer" : 0,
            "byteLength" : 15576,
            "byteOffset" : 67488,
            "target" : 34962
        },
        {
            "buffer" : 0,
            "byteLength" : 15576,
            "byteOffset" : 83064,
            "target" : 34962
        },
        {
            "buffer" : 0,
            "byteLength" : 20768,
            "byteOffset" : 98640,
            "target" : 34962
        },
        {
            "buffer" : 0,
            "byteLength" : 10384,
            "byteOffset" : 119408,
            "target" : 34962
        },
        {
            "buffer" : 0,
            "byteLength" : 3264,
            "byteOffset" : 129792,
            "target" : 34963
        },
        {
            "buffer" : 0,
            "byteLength" : 3672,
            "byteOffset" : 133056,
            "target" : 34962
        },
        {
            "buffer" : 0,
            "byteLength" : 3672,
            "byteOffset" : 136728,
            "target" : 34962
        },
        {
            "buffer" : 0,
            "byteLength" : 4896,
            "byteOffset" : 140400,
            "target" : 34962
        },
        {
            "buffer" : 0,
            "byteLength" : 2448,
            "byteOffset" : 145296,
            "target" : 34962
        }
    ],
    "buffers" : [
        {
            "byteLength" : 147744,
            "uri" : "data:application/octet-stream;base64,"
        }
    ],
    "extensionsRequired" : [
        "KHR_materials_pbrSpecularGlossiness"
    ],
    "extensionsUsed" : [
        "KHR_materials_pbrSpecularGlossiness"
    ],
    "images" : [
        {
            "mimeType" : "image/jpeg",
            "name" : "3MHCl",
            "uri" : "data:image/jpeg;base64,"
        },
        {
            "mimeType" : "image/jpeg",
            "name" : "01MCaCl2",
            "uri" : "data:image/jpeg;base64,"
        }
    ],
    "materials" : [
        {
            "extensions" : {
                "KHR_materials_pbrSpecularGlossiness" : {
                    "diffuseFactor" : [
                        0.0143861910328269,
                        0.004410959780216217,
                        0.003122844034805894,
                        1.0
                    ],
                    "specularFactor" : [
                        0.42662742733955383,
                        0.42662742733955383,
                        0.42662742733955383
                    ]
                }
            },
            "name" : "bottle"
        },
        {
            "name" : "cap",
            "pbrMetallicRoughness" : {
                "baseColorFactor" : [
                    0.7484185099601746,
                    0.12866242229938507,
                    0.09827908128499985,
                    1.0
                ]
            }
        },
        {
            "name" : "3MHCl",
            "pbrMetallicRoughness" : {
                "baseColorTexture" : {
                    "index" : 0
                }
            }
        },
        {
            "name" : "01MCaCl2",
            "pbrMetallicRoughness" : {
                "baseColorTexture" : {
                    "index" : 1
                }
            }
        }
    ],
    "meshes" : [
        {
            "name" : "cap",
            "primitives" : [
                {
                    "attributes" : {
                        "NORMAL" : 2,
                        "POSITION" : 1,
                        "TANGENT" : 3,
                        "TEXCOORD_0" : 4
                    },
                    "indices" : 0,
                    "material" : 1
                }
            ]
        },
        {
            "name" : "label.001",
            "primitives" : [
                {
                    "attributes" : {
                        "NORMAL" : 7,
                        "POSITION" : 6,
                        "TANGENT" : 8,
                        "TEXCOORD_0" : 9
                    },
                    "indices" : 5,
                    "material" : 3
                }
            ]
        },
        {
            "name" : "bottle",
            "primitives" : [
                {
                    "attributes" : {
                        "NORMAL" : 12,
                        "POSITION" : 11,
                        "TANGENT" : 13,
                        "TEXCOORD_0" : 14
                    },
                    "indices" : 10,
                    "material" : 0
                }
            ]
        },
        {
            "name" : "label",
            "primitives" : [
                {
                    "attributes" : {
                        "NORMAL" : 17,
                        "POSITION" : 16,
                        "TANGENT" : 18,
                        "TEXCOORD_0" : 19
                    },
                    "indices" : 15,
                    "material" : 2
                }
            ]
        }
    ],
    "nodes" : [
        {
            "mesh" : 1,
            "name" : "01MCaCl2",
            "scale" : [
                0.029657546430826187,
                0.029657471925020218,
                0.029657546430826187
            ],
            "translation" : [
                0.0,
                0.05340149253606796,
                0.01444763783365488
            ]
        },
        {
            "mesh" : 3,
            "name" : "3MHCl",
            "scale" : [
                0.029657546430826187,
                0.029657471925020218,
                0.029657546430826187
            ],
            "translation" : [
                0.0,
                0.05340149253606796,
                0.01444763783365488
            ]
        },
        {
            "mesh" : 2,
            "name" : "bottle",
            "scale" : [
                0.029657546430826187,
                0.029657471925020218,
                0.029657546430826187
            ],
            "translation" : [
                1.6150948634052753e-10,
                0.00514906644821167,
                -0.0033294647000730038
            ]
        },
        {
            "mesh" : 0,
            "name" : "cap",
            "scale" : [
                0.029657546430826187,
                0.029657471925020218,
                0.029657546430826187
            ],
            "translation" : [
                1.6150948634052753e-10,
                0.00514906644821167,
                -0.0033294647000730038
            ]
        }
    ],
    "samplers" : [
        {}
    ],
    "scene" : 0,
    "scenes" : [
        {
            "name" : "Scene",
            "nodes" : [
                1,
                3,
                2,
                0
            ]
        }
    ],
    "textures" : [
        {
            "sampler" : 0,
            "source" : 0
        },
        {
            "sampler" : 0,
            "source" : 1
        }
    ]
}
